<?xml version="1.0" standalone="no"?>
<!DOCTYPE svg PUBLIC "-//W3C//DTD SVG 20010904//EN"
 "http://www.w3.org/TR/2001/REC-SVG-20010904/DTD/svg10.dtd">
<svg version="1.0" xmlns="http://www.w3.org/2000/svg"
 width="1108.000000pt" height="1108.000000pt" viewBox="0 0 1108.000000 1108.000000"
 preserveAspectRatio="xMidYMid meet">
<metadata>
Created by potrace 1.11, written by Peter Selinger 2001-2013
</metadata>
<g transform="translate(0.000000,1108.000000) scale(0.100000,-0.100000)"
fill="#000000" stroke="none">
<path d="M1121 5545 l0 -5295 4404 0 4405 0 0 5295 0 5295 -4405 0 -4404 0 0
-5295z m8489 -5 l0 -4970 -4080 0 -4080 0 0 4970 0 4970 4080 0 4080 0 0
-4970z"/>
<path d="M4281 8928 c-10 -24 -30 -77 -45 -118 -16 -41 -59 -156 -96 -255 -38
-99 -101 -265 -140 -370 -89 -238 -223 -592 -300 -795 -54 -143 -160 -424
-312 -825 -33 -88 -79 -211 -103 -273 -30 -78 -40 -115 -32 -118 7 -2 123 -3
257 -2 l245 3 37 105 c20 58 57 166 83 240 25 74 58 167 71 205 14 39 27 76
30 83 3 9 119 12 539 12 l535 0 10 -22 c15 -38 57 -157 166 -470 19 -57 40
-115 46 -130 l10 -28 254 0 c175 0 254 3 254 11 0 6 -18 56 -39 112 -21 56
-78 206 -126 332 -48 127 -118 311 -155 410 -38 99 -108 284 -155 410 -48 127
-129 340 -180 475 -51 135 -125 331 -164 435 -167 442 -225 591 -234 603 -7 9
-64 12 -224 12 l-214 0 -18 -42z m272 -678 c30 -87 78 -226 112 -320 13 -36
40 -111 59 -167 20 -57 52 -148 71 -203 86 -245 104 -296 110 -317 l6 -23
-389 0 c-214 0 -391 3 -394 6 -4 3 16 69 44 147 27 78 77 219 110 312 33 94
64 181 68 195 4 14 31 90 60 170 28 80 58 165 66 190 27 81 37 101 45 93 4 -4
19 -42 32 -83z"/>
<path d="M6057 8963 c-4 -3 -7 -633 -7 -1400 l0 -1393 880 0 880 0 -2 198 -3
197 -627 3 -628 2 0 1194 c0 1079 -2 1194 -16 1200 -21 8 -469 8 -477 -1z"/>
<path d="M6640 5074 c-14 -2 -59 -9 -100 -15 -198 -29 -410 -133 -563 -278
-43 -41 -177 -210 -177 -224 0 -3 -15 -32 -34 -65 -40 -71 -91 -200 -117 -297
-81 -298 -81 -839 0 -1117 134 -463 443 -766 871 -854 114 -23 363 -23 475 0
486 103 809 475 894 1031 34 221 34 565 0 775 -70 440 -292 770 -629 932 -108
52 -162 70 -275 93 -78 16 -295 28 -345 19z m220 -419 c159 -18 302 -112 401
-263 83 -127 136 -309 149 -512 10 -153 3 -516 -11 -596 -5 -33 -13 -75 -16
-94 -3 -19 -17 -70 -30 -114 -72 -225 -213 -380 -398 -438 -57 -18 -93 -22
-200 -22 -201 1 -303 40 -425 164 -106 108 -181 264 -217 450 -36 187 -37 591
-3 809 15 93 65 236 113 319 73 130 205 239 337 281 49 15 168 30 210 25 19
-2 60 -6 90 -9z"/>
<path d="M3276 5024 c-8 -20 -8 -2748 0 -2768 5 -14 37 -16 249 -16 223 0 243
1 247 18 3 9 4 250 4 535 l-1 517 268 -2 268 -3 65 -125 c175 -336 232 -445
292 -560 138 -267 185 -355 195 -367 7 -10 73 -13 268 -13 240 0 259 1 259 18
0 9 -139 275 -309 591 -171 316 -308 578 -305 583 3 4 25 16 49 27 71 31 165
100 235 171 116 116 179 246 205 419 19 122 19 188 0 305 -22 138 -54 223
-119 320 -126 189 -335 304 -641 352 -69 10 -221 14 -656 14 -508 0 -567 -2
-573 -16z m1179 -408 c195 -55 294 -166 317 -357 22 -175 -20 -317 -119 -411
-122 -113 -254 -141 -648 -136 l-229 3 -1 455 c-1 250 1 459 3 463 2 5 142 7
311 5 250 -4 317 -8 366 -22z"/>
</g>
</svg>
