<?xml version="1.0" standalone="no"?>
<!DOCTYPE svg PUBLIC "-//W3C//DTD SVG 20010904//EN"
 "http://www.w3.org/TR/2001/REC-SVG-20010904/DTD/svg10.dtd">
<svg version="1.0" xmlns="http://www.w3.org/2000/svg"
 width="512.000000pt" height="512.000000pt" viewBox="0 0 512.000000 512.000000"
 preserveAspectRatio="xMidYMid meet">
<metadata>
Created by potrace 1.11, written by Peter Selinger 2001-2013
</metadata>
<g transform="translate(0.000000,512.000000) scale(0.100000,-0.100000)"
fill="#000000" stroke="none">
<path d="M2400 4300 c-30 -4 -85 -8 -122 -9 -37 -1 -100 -10 -140 -20 -40 -11
-97 -23 -127 -26 -30 -4 -69 -14 -87 -21 -18 -8 -46 -14 -62 -14 -16 0 -56
-11 -90 -25 -34 -14 -73 -25 -86 -25 -14 0 -27 -4 -30 -9 -3 -5 -18 -12 -33
-16 -15 -3 -50 -17 -78 -30 -27 -13 -57 -26 -65 -29 -69 -28 -104 -72 -94
-121 9 -44 56 -188 65 -200 4 -5 10 -28 15 -49 4 -22 13 -51 20 -65 8 -14 14
-33 14 -41 0 -8 11 -39 25 -68 14 -30 25 -65 25 -78 0 -13 13 -38 29 -56 26
-29 32 -32 50 -20 12 6 28 12 37 12 9 0 28 6 42 14 43 22 156 66 171 66 7 0
48 11 90 24 114 36 159 47 231 56 36 4 124 15 196 25 136 17 182 14 324 -18
65 -14 146 -62 195 -114 31 -33 74 -113 128 -235 24 -54 43 -216 28 -231 -9
-9 -117 -14 -384 -18 -433 -8 -587 -19 -674 -48 -34 -12 -75 -21 -90 -21 -16
0 -37 -6 -48 -13 -11 -7 -36 -19 -55 -26 -40 -15 -98 -40 -120 -52 -121 -67
-258 -176 -301 -239 -13 -19 -31 -43 -40 -53 -24 -26 -94 -171 -118 -245 -12
-34 -26 -106 -31 -160 -5 -53 -13 -114 -16 -136 -9 -53 28 -360 46 -381 5 -6
12 -31 16 -55 4 -24 25 -76 46 -114 21 -39 44 -81 51 -93 28 -51 132 -166 199
-220 67 -53 191 -121 278 -152 19 -7 71 -21 116 -32 45 -10 93 -23 108 -29 16
-6 125 -10 260 -10 247 0 277 4 421 60 28 11 59 20 69 20 20 0 272 122 321
155 17 11 50 35 74 53 43 31 75 39 96 24 13 -8 105 -146 105 -156 0 -4 14 -22
32 -41 l31 -35 208 0 c189 0 209 2 216 18 4 9 6 552 3 1207 -5 1109 -6 1192
-22 1222 -10 18 -18 40 -18 50 0 15 -15 58 -55 153 -8 21 -26 49 -52 87 -13
17 -23 34 -23 37 0 16 -84 117 -152 183 -116 113 -353 261 -478 298 -14 4 -29
11 -35 15 -5 4 -32 11 -60 15 -27 4 -72 15 -100 25 -32 12 -92 20 -170 24 -66
3 -154 8 -195 10 -41 2 -100 1 -130 -4z m698 -1902 c9 -9 12 -82 12 -268 l0
-255 -48 -41 c-75 -65 -161 -134 -167 -134 -3 0 -32 -17 -63 -37 -70 -45 -168
-93 -191 -93 -9 0 -26 -6 -37 -14 -11 -8 -54 -19 -96 -25 -42 -6 -98 -15 -123
-21 -51 -11 -84 -8 -185 20 -111 30 -157 64 -233 172 -36 51 -48 79 -61 144
-20 100 -20 117 -1 196 48 193 201 334 392 358 104 13 787 12 801 -2z"/>
</g>
</svg>
