{
  "accessors": [
    {
      "bufferView": 2,
      "componentType": 5126,
      "count": 65532,
      "max": [
        2.1360790729522705,
        2.5171504020690918,
        0.7750779390335083
      ],
      "min": [
        -2.1360790729522705,
        -2.7267844676971436,
        -1.5011796951293945
      ],
      "type": "VEC3"
    },
    {
      "bufferView": 2,
      "byteOffset": 786384,
      "componentType": 5126,
      "count": 65532,
      "max": [
        1,
        1,
        1
      ],
      "min": [
        -1,
        -1,
        -1
      ],
      "type": "VEC3"
    },
    {
      "bufferView": 3,
      "componentType": 5126,
      "count": 65532,
      "max": [
        1,
        1,
        1,
        1
      ],
      "min": [
        -1,
        -1,
        -0.99999213218688965,
        -1
      ],
      "type": "VEC4"
    },
    {
      "bufferView": 1,
      "componentType": 5126,
      "count": 65532,
      "max": [
        0.97194826602935791,
        0.99887543916702271
      ],
      "min": [
        0.0010581128299236298,
        0.00091510167112573981
      ],
      "type": "VEC2"
    },
    {
      "bufferView": 0,
      "componentType": 5125,
      "count": 315345,
      "max": [
        65531
      ],
      "min": [
        0
      ],
      "type": "SCALAR"
    },
    {
      "bufferView": 2,
      "byteOffset": 1572768,
      "componentType": 5126,
      "count": 35882,
      "max": [
        2.1360790729522705,
        2.5118775367736816,
        0.77423083782196045
      ],
      "min": [
        -2.1360790729522705,
        -2.7267844676971436,
        -1.5004177093505859
      ],
      "type": "VEC3"
    },
    {
      "bufferView": 2,
      "byteOffset": 2003352,
      "componentType": 5126,
      "count": 35882,
      "max": [
        1,
        1,
        0.99999970197677612
      ],
      "min": [
        -0.99999326467514038,
        -1,
        -1
      ],
      "type": "VEC3"
    },
    {
      "bufferView": 3,
      "byteOffset": 1048512,
      "componentType": 5126,
      "count": 35882,
      "max": [
        1,
        1,
        1,
        1
      ],
      "min": [
        -1,
        -1,
        -1,
        -1
      ],
      "type": "VEC4"
    },
    {
      "bufferView": 1,
      "byteOffset": 524256,
      "componentType": 5126,
      "count": 35882,
      "max": [
        0.98886340856552124,
        0.99886453151702881
      ],
      "min": [
        0.0010606639552861452,
        0.00072474952321499586
      ],
      "type": "VEC2"
    },
    {
      "bufferView": 0,
      "byteOffset": 1261380,
      "componentType": 5125,
      "count": 147495,
      "max": [
        35881
      ],
      "min": [
        0
      ],
      "type": "SCALAR"
    },
    {
      "bufferView": 2,
      "byteOffset": 2433936,
      "componentType": 5126,
      "count": 65532,
      "max": [
        1.1986061334609985,
        2.4793980121612549,
        0.69286417961120605
      ],
      "min": [
        -1.1686655282974243,
        -2.6361408233642578,
        -0.55091440677642822
      ],
      "type": "VEC3"
    },
    {
      "bufferView": 2,
      "byteOffset": 3220320,
      "componentType": 5126,
      "count": 65532,
      "max": [
        1,
        1,
        1
      ],
      "min": [
        -1,
        -1,
        -1
      ],
      "type": "VEC3"
    },
    {
      "bufferView": 3,
      "byteOffset": 1622624,
      "componentType": 5126,
      "count": 65532,
      "max": [
        1,
        1,
        1,
        1
      ],
      "min": [
        -1,
        -1,
        -1,
        -1
      ],
      "type": "VEC4"
    },
    {
      "bufferView": 1,
      "byteOffset": 811312,
      "componentType": 5126,
      "count": 65532,
      "max": [
        0.97213435173034668,
        0.99898546934127808
      ],
      "min": [
        0,
        0
      ],
      "type": "VEC2"
    },
    {
      "bufferView": 0,
      "byteOffset": 1851360,
      "componentType": 5125,
      "count": 326274,
      "max": [
        65531
      ],
      "min": [
        0
      ],
      "type": "SCALAR"
    },
    {
      "bufferView": 2,
      "byteOffset": 4006704,
      "componentType": 5126,
      "count": 63424,
      "max": [
        1.8650020360946655,
        2.4932289123535156,
        0.67612326145172119
      ],
      "min": [
        -1.8650020360946655,
        -2.7269454002380371,
        -0.67084974050521851
      ],
      "type": "VEC3"
    },
    {
      "bufferView": 2,
      "byteOffset": 4767792,
      "componentType": 5126,
      "count": 63424,
      "max": [
        1,
        1,
        1
      ],
      "min": [
        -1,
        -1,
        -1
      ],
      "type": "VEC3"
    },
    {
      "bufferView": 3,
      "byteOffset": 2671136,
      "componentType": 5126,
      "count": 63424,
      "max": [
        1,
        1,
        1,
        1
      ],
      "min": [
        -1,
        -1,
        -1,
        -1
      ],
      "type": "VEC4"
    },
    {
      "bufferView": 1,
      "byteOffset": 1335568,
      "componentType": 5126,
      "count": 63424,
      "max": [
        0.97908550500869751,
        0.99898546934127808
      ],
      "min": [
        0,
        0
      ],
      "type": "VEC2"
    },
    {
      "bufferView": 0,
      "byteOffset": 3156456,
      "componentType": 5125,
      "count": 317982,
      "max": [
        63423
      ],
      "min": [
        0
      ],
      "type": "SCALAR"
    }
  ],
  "asset": {
    "extras": {
      "author": "Petri Liuhto (https://sketchfab.com/petri.liuhto)",
      "license": "CC-BY-NC-4.0 (http://creativecommons.org/licenses/by-nc/4.0/)",
      "source": "https://sketchfab.com/3d-models/jedi-star-fighter-0b641c2f2b854f1f9ae7f2a731e44dbd",
      "title": "Jedi Star Fighter"
    },
    "generator": "Sketchfab-6.56.0",
    "version": "2.0"
  },
  "bufferViews": [
    {
      "buffer": 0,
      "byteLength": 4428384,
      "byteOffset": 0,
      "name": "floatBufferViews",
      "target": 34963
    },
    {
      "buffer": 0,
      "byteLength": 1842960,
      "byteOffset": 4428384,
      "byteStride": 8,
      "name": "floatBufferViews",
      "target": 34962
    },
    {
      "buffer": 0,
      "byteLength": 5528880,
      "byteOffset": 6271344,
      "byteStride": 12,
      "name": "floatBufferViews",
      "target": 34962
    },
    {
      "buffer": 0,
      "byteLength": 3685920,
      "byteOffset": 11800224,
      "byteStride": 16,
      "name": "floatBufferViews",
      "target": 34962
    }
  ],
  "buffers": [
    {
      "byteLength": 15486144,
      "uri": "scene.bin"
    }
  ],
  "images": [
    {
      "uri": "textures/jsf_mainMat_baseColor.png"
    },
    {
      "uri": "textures/jsf_mainMat_metallicRoughness.png"
    },
    {
      "uri": "textures/jsf_mainMat_normal.png"
    },
    {
      "uri": "textures/jsf_auxMat_baseColor.png"
    },
    {
      "uri": "textures/jsf_auxMat_metallicRoughness.png"
    },
    {
      "uri": "textures/jsf_auxMat_normal.png"
    }
  ],
  "materials": [
    {
      "doubleSided": false,
      "name": "jsf_mainMat",
      "normalTexture": {
        "index": 2,
        "scale": 1,
        "texCoord": 0
      },
      "pbrMetallicRoughness": {
        "baseColorFactor": [
          1,
          1,
          1,
          1
        ],
        "baseColorTexture": {
          "index": 0,
          "texCoord": 0
        },
        "metallicFactor": 1,
        "metallicRoughnessTexture": {
          "index": 1,
          "texCoord": 0
        },
        "roughnessFactor": 1
      }
    },
    {
      "doubleSided": false,
      "name": "jsf_auxMat",
      "normalTexture": {
        "index": 5,
        "scale": 1,
        "texCoord": 0
      },
      "pbrMetallicRoughness": {
        "baseColorFactor": [
          1,
          1,
          1,
          1
        ],
        "baseColorTexture": {
          "index": 3,
          "texCoord": 0
        },
        "metallicFactor": 1,
        "metallicRoughnessTexture": {
          "index": 4,
          "texCoord": 0
        },
        "roughnessFactor": 1
      }
    }
  ],
  "meshes": [
    {
      "name": "main_jsf_mainMat_0",
      "primitives": [
        {
          "attributes": {
            "NORMAL": 1,
            "POSITION": 0,
            "TANGENT": 2,
            "TEXCOORD_0": 3
          },
          "indices": 4,
          "material": 0,
          "mode": 4
        }
      ]
    },
    {
      "name": "main_jsf_mainMat_0",
      "primitives": [
        {
          "attributes": {
            "NORMAL": 6,
            "POSITION": 5,
            "TANGENT": 7,
            "TEXCOORD_0": 8
          },
          "indices": 9,
          "material": 0,
          "mode": 4
        }
      ]
    },
    {
      "name": "aux_jsf_auxMat_0",
      "primitives": [
        {
          "attributes": {
            "NORMAL": 11,
            "POSITION": 10,
            "TANGENT": 12,
            "TEXCOORD_0": 13
          },
          "indices": 14,
          "material": 1,
          "mode": 4
        }
      ]
    },
    {
      "name": "aux_jsf_auxMat_0",
      "primitives": [
        {
          "attributes": {
            "NORMAL": 16,
            "POSITION": 15,
            "TANGENT": 17,
            "TEXCOORD_0": 18
          },
          "indices": 19,
          "material": 1,
          "mode": 4
        }
      ]
    }
  ],
  "nodes": [
    {
      "children": [
        1
      ],
      "name": "RootNode (gltf orientation matrix)",
      "rotation": [
        -0.70710678118654746,
        -0,
        -0,
        0.70710678118654757
      ]
    },
    {
      "children": [
        2
      ],
      "name": "RootNode (model correction matrix)"
    },
    {
      "children": [
        3
      ],
      "matrix": [
        1,
        0,
        0,
        0,
        0,
        0,
        1,
        0,
        0,
        -1,
        0,
        0,
        0,
        0,
        0,
        1
      ],
      "name": "jsf_RealTimeModel.fbx"
    },
    {
      "children": [
        4,
        7
      ],
      "name": "RootNode"
    },
    {
      "children": [
        5,
        6
      ],
      "matrix": [
        100,
        0,
        0,
        0,
        0,
        -1.6292067939183141e-05,
        -99.999999999998678,
        0,
        0,
        99.999999999998678,
        -1.6292067939183141e-05,
        0,
        0,
        0,
        0,
        1
      ],
      "name": "main"
    },
    {
      "mesh": 0,
      "name": "main_jsf_mainMat_0"
    },
    {
      "mesh": 1,
      "name": "main_jsf_mainMat_0"
    },
    {
      "children": [
        8,
        9
      ],
      "matrix": [
        100,
        0,
        0,
        0,
        0,
        -1.6292067939183141e-05,
        -99.999999999998678,
        0,
        0,
        99.999999999998678,
        -1.6292067939183141e-05,
        0,
        0,
        0,
        0,
        1
      ],
      "name": "aux"
    },
    {
      "mesh": 2,
      "name": "aux_jsf_auxMat_0"
    },
    {
      "mesh": 3,
      "name": "aux_jsf_auxMat_0"
    }
  ],
  "samplers": [
    {
      "magFilter": 9729,
      "minFilter": 9987,
      "wrapS": 10497,
      "wrapT": 10497
    }
  ],
  "scene": 0,
  "scenes": [
    {
      "name": "OSG_Scene",
      "nodes": [
        0
      ]
    }
  ],
  "textures": [
    {
      "sampler": 0,
      "source": 0
    },
    {
      "sampler": 0,
      "source": 1
    },
    {
      "sampler": 0,
      "source": 2
    },
    {
      "sampler": 0,
      "source": 3
    },
    {
      "sampler": 0,
      "source": 4
    },
    {
      "sampler": 0,
      "source": 5
    }
  ]
}

