{
  "accessors": [
    {
      "bufferView": 3,
      "componentType": 5126,
      "count": 5288,
      "max": [
        0.18260057270526886,
        0.4011054039001465,
        0.4012567698955536
      ],
      "min": [
        -0.19076164066791534,
        -0.5479183197021484,
        -0.4012012779712677
      ],
      "type": "VEC3"
    },
    {
      "bufferView": 3,
      "byteOffset": 63456,
      "componentType": 5126,
      "count": 5288,
      "max": [
        1.0,
        1.0,
        1.0
      ],
      "min": [
        -1.0,
        -1.0,
        -1.0
      ],
      "type": "VEC3"
    },
    {
      "bufferView": 4,
      "componentType": 5126,
      "count": 5288,
      "max": [
        1.0,
        0.9990776777267456,
        1.0,
        1.0
      ],
      "min": [
        -1.0,
        -0.9999390840530396,
        -1.0,
        -1.0
      ],
      "type": "VEC4"
    },
    {
      "bufferView": 2,
      "componentType": 5126,
      "count": 5288,
      "max": [
        0.9976060390472412,
        2.916945219039917
      ],
      "min": [
        0.0032110579777508974,
        0.0148802250623703
      ],
      "type": "VEC2"
    },
    {
      "bufferView": 1,
      "componentType": 5125,
      "count": 17250,
      "type": "SCALAR"
    },
    {
      "bufferView": 5,
      "componentType": 5126,
      "count": 5,
      "max": [
        1.0,
        0.0,
        2.384185791015625e-07,
        0.0,
        0.0,
        1.0,
        1.0,
        0.0,
        0.0,
        0.0,
        1.0,
        0.0,
        2.0563602447509766e-06,
        0.4033691883087158,
        1.2458865512599004e-06,
        1.0
      ],
      "min": [
        1.0,
        0.0,
        0.0,
        0.0,
        0.0,
        -1.0,
        0.0,
        0.0,
        -2.384185791015625e-07,
        -1.0,
        -1.0,
        0.0,
        -9.685754776000977e-07,
        0.0,
        -1.6927719116210938e-05,
        1.0
      ],
      "type": "MAT4"
    },
    {
      "bufferView": 0,
      "componentType": 5123,
      "count": 5288,
      "type": "VEC4"
    },
    {
      "bufferView": 4,
      "byteOffset": 84608,
      "componentType": 5126,
      "count": 5288,
      "max": [
        1.0,
        0.0,
        0.0,
        0.0
      ],
      "min": [
        0.0,
        0.0,
        0.0,
        0.0
      ],
      "type": "VEC4"
    },
    {
      "bufferView": 6,
      "componentType": 5126,
      "count": 500,
      "max": [
        8.333333015441895
      ],
      "min": [
        0.01666666753590107
      ],
      "type": "SCALAR"
    },
    {
      "bufferView": 8,
      "componentType": 5126,
      "count": 500,
      "max": [
        0.0,
        1.0,
        0.0,
        1.0
      ],
      "min": [
        0.0,
        -0.9999403953552246,
        0.0,
        0.0
      ],
      "type": "VEC4"
    },
    {
      "bufferView": 6,
      "byteOffset": 2000,
      "componentType": 5126,
      "count": 400,
      "max": [
        8.333333015441895
      ],
      "min": [
        0.01666666753590107
      ],
      "type": "SCALAR"
    },
    {
      "bufferView": 7,
      "componentType": 5126,
      "count": 400,
      "max": [
        1.0000003576278687,
        1.0,
        1.0000003576278687
      ],
      "min": [
        0.9999996423721313,
        1.0,
        0.9999996423721313
      ],
      "type": "VEC3"
    },
    {
      "bufferView": 6,
      "byteOffset": 3600,
      "componentType": 5126,
      "count": 426,
      "max": [
        8.333333015441895
      ],
      "min": [
        0.01666666753590107
      ],
      "type": "SCALAR"
    },
    {
      "bufferView": 7,
      "byteOffset": 4800,
      "componentType": 5126,
      "count": 426,
      "max": [
        3.054737817365094e-06,
        0.40338611602783203,
        0.351451575756073
      ],
      "min": [
        3.0100318326731212e-06,
        0.40338611602783203,
        0.35145145654678345
      ],
      "type": "VEC3"
    },
    {
      "bufferView": 6,
      "byteOffset": 5304,
      "componentType": 5126,
      "count": 491,
      "max": [
        8.333333015441895
      ],
      "min": [
        0.01666666753590107
      ],
      "type": "SCALAR"
    },
    {
      "bufferView": 8,
      "byteOffset": 8000,
      "componentType": 5126,
      "count": 491,
      "max": [
        0.008876049891114235,
        0.7071068286895752,
        0.7070510983467102,
        0.7071068286895752
      ],
      "min": [
        -0.7071068286895752,
        -0.7070510387420654,
        -0.7071068286895752,
        -0.008876053616404533
      ],
      "type": "VEC4"
    },
    {
      "bufferView": 6,
      "byteOffset": 7268,
      "componentType": 5126,
      "count": 465,
      "max": [
        8.333333015441895
      ],
      "min": [
        0.01666666753590107
      ],
      "type": "SCALAR"
    },
    {
      "bufferView": 7,
      "byteOffset": 9912,
      "componentType": 5126,
      "count": 465,
      "max": [
        1.0000004768371582,
        1.0000001192092896,
        1.0000004768371582
      ],
      "min": [
        0.9999995827674866,
        0.9999998807907104,
        0.9999996423721313
      ],
      "type": "VEC3"
    },
    {
      "bufferView": 6,
      "byteOffset": 9128,
      "componentType": 5126,
      "count": 498,
      "max": [
        8.333333015441895
      ],
      "min": [
        0.01666666753590107
      ],
      "type": "SCALAR"
    },
    {
      "bufferView": 7,
      "byteOffset": 15492,
      "componentType": 5126,
      "count": 498,
      "max": [
        -2.9802322387695313e-08,
        0.3514500856399536,
        0.29302936792373657
      ],
      "min": [
        -1.0430358088342473e-07,
        0.3514500558376312,
        0.293029248714447
      ],
      "type": "VEC3"
    },
    {
      "bufferView": 6,
      "byteOffset": 11120,
      "componentType": 5126,
      "count": 491,
      "max": [
        8.333333015441895
      ],
      "min": [
        0.01666666753590107
      ],
      "type": "SCALAR"
    },
    {
      "bufferView": 8,
      "byteOffset": 15856,
      "componentType": 5126,
      "count": 491,
      "max": [
        4.634181038909446e-08,
        0.7071068286895752,
        0.7070510387420654,
        0.7071068286895752
      ],
      "min": [
        -0.7071068286895752,
        -0.7070510983467102,
        -0.7071068286895752,
        -3.7951856768358994e-08
      ],
      "type": "VEC4"
    },
    {
      "bufferView": 6,
      "byteOffset": 13084,
      "componentType": 5126,
      "count": 491,
      "max": [
        8.333333015441895
      ],
      "min": [
        0.01666666753590107
      ],
      "type": "SCALAR"
    },
    {
      "bufferView": 7,
      "byteOffset": 21468,
      "componentType": 5126,
      "count": 491,
      "max": [
        1.0000005960464478,
        1.000000238418579,
        1.0000005960464478
      ],
      "min": [
        0.9999996423721313,
        0.9999998807907104,
        0.9999996423721313
      ],
      "type": "VEC3"
    },
    {
      "bufferView": 6,
      "byteOffset": 15048,
      "componentType": 5126,
      "count": 500,
      "max": [
        8.333333015441895
      ],
      "min": [
        0.01666666753590107
      ],
      "type": "SCALAR"
    },
    {
      "bufferView": 8,
      "byteOffset": 23712,
      "componentType": 5126,
      "count": 500,
      "max": [
        0.11547373235225677,
        0.8019689321517944,
        0.14074882864952087,
        1.0
      ],
      "min": [
        -0.2625914514064789,
        -0.150738924741745,
        -0.11712390184402466,
        0.5866512656211853
      ],
      "type": "VEC4"
    },
    {
      "bufferView": 6,
      "byteOffset": 17048,
      "componentType": 5126,
      "count": 450,
      "max": [
        8.333333015441895
      ],
      "min": [
        0.01666666753590107
      ],
      "type": "SCALAR"
    },
    {
      "bufferView": 7,
      "byteOffset": 27360,
      "componentType": 5126,
      "count": 450,
      "max": [
        1.000000238418579,
        1.0,
        1.000000238418579
      ],
      "min": [
        0.9999998211860657,
        0.9999999403953552,
        0.9999998211860657
      ],
      "type": "VEC3"
    },
    {
      "bufferView": 6,
      "byteOffset": 18848,
      "componentType": 5126,
      "count": 499,
      "max": [
        8.316666603088379
      ],
      "min": [
        0.01666666753590107
      ],
      "type": "SCALAR"
    },
    {
      "bufferView": 8,
      "byteOffset": 31712,
      "componentType": 5126,
      "count": 499,
      "max": [
        0.11547373235225677,
        0.8019689321517944,
        0.14074882864952087,
        1.0
      ],
      "min": [
        -0.2625914514064789,
        -0.150738924741745,
        -0.11712390184402466,
        0.5866512656211853
      ],
      "type": "VEC4"
    },
    {
      "bufferView": 6,
      "byteOffset": 20844,
      "componentType": 5126,
      "count": 449,
      "max": [
        8.316666603088379
      ],
      "min": [
        0.01666666753590107
      ],
      "type": "SCALAR"
    },
    {
      "bufferView": 7,
      "byteOffset": 32760,
      "componentType": 5126,
      "count": 449,
      "max": [
        1.000000238418579,
        1.0,
        1.000000238418579
      ],
      "min": [
        0.9999998211860657,
        0.9999999403953552,
        0.9999998211860657
      ],
      "type": "VEC3"
    }
  ],
  "animations": [
    {
      "channels": [
        {
          "sampler": 0,
          "target": {
            "node": 8,
            "path": "rotation"
          }
        },
        {
          "sampler": 1,
          "target": {
            "node": 8,
            "path": "scale"
          }
        },
        {
          "sampler": 2,
          "target": {
            "node": 9,
            "path": "translation"
          }
        },
        {
          "sampler": 3,
          "target": {
            "node": 9,
            "path": "rotation"
          }
        },
        {
          "sampler": 4,
          "target": {
            "node": 9,
            "path": "scale"
          }
        },
        {
          "sampler": 5,
          "target": {
            "node": 10,
            "path": "translation"
          }
        },
        {
          "sampler": 6,
          "target": {
            "node": 10,
            "path": "rotation"
          }
        },
        {
          "sampler": 7,
          "target": {
            "node": 10,
            "path": "scale"
          }
        },
        {
          "sampler": 8,
          "target": {
            "node": 11,
            "path": "rotation"
          }
        },
        {
          "sampler": 9,
          "target": {
            "node": 11,
            "path": "scale"
          }
        }
      ],
      "name": "gyro_spin",
      "samplers": [
        {
          "input": 8,
          "interpolation": "LINEAR",
          "output": 9
        },
        {
          "input": 10,
          "interpolation": "LINEAR",
          "output": 11
        },
        {
          "input": 12,
          "interpolation": "LINEAR",
          "output": 13
        },
        {
          "input": 14,
          "interpolation": "LINEAR",
          "output": 15
        },
        {
          "input": 16,
          "interpolation": "LINEAR",
          "output": 17
        },
        {
          "input": 18,
          "interpolation": "LINEAR",
          "output": 19
        },
        {
          "input": 20,
          "interpolation": "LINEAR",
          "output": 21
        },
        {
          "input": 22,
          "interpolation": "LINEAR",
          "output": 23
        },
        {
          "input": 24,
          "interpolation": "LINEAR",
          "output": 25
        },
        {
          "input": 26,
          "interpolation": "LINEAR",
          "output": 27
        }
      ]
    },
    {
      "channels": [
        {
          "sampler": 0,
          "target": {
            "node": 11,
            "path": "rotation"
          }
        },
        {
          "sampler": 1,
          "target": {
            "node": 11,
            "path": "scale"
          }
        }
      ],
      "name": "gyro rune enchanting",
      "samplers": [
        {
          "input": 28,
          "interpolation": "LINEAR",
          "output": 29
        },
        {
          "input": 30,
          "interpolation": "LINEAR",
          "output": 31
        }
      ]
    }
  ],
  "asset": {
    "extras": {
      "author": "reddification (https://sketchfab.com/reddification)",
      "license": "CC-BY-4.0 (http://creativecommons.org/licenses/by/4.0/)",
      "source": "https://sketchfab.com/3d-models/magical-gyroscope-a3f110c0d2944a2dbff78709eb8f3984",
      "title": "Magical gyroscope"
    },
    "generator": "Sketchfab-12.66.0",
    "version": "2.0"
  },
  "bufferViews": [
    {
      "buffer": 0,
      "byteLength": 42304,
      "byteStride": 8,
      "name": "shortBufferViews",
      "target": 34962
    },
    {
      "buffer": 0,
      "byteLength": 69000,
      "byteOffset": 42304,
      "name": "floatBufferViews",
      "target": 34963
    },
    {
      "buffer": 0,
      "byteLength": 42304,
      "byteOffset": 111304,
      "byteStride": 8,
      "name": "floatBufferViews",
      "target": 34962
    },
    {
      "buffer": 0,
      "byteLength": 126912,
      "byteOffset": 153608,
      "byteStride": 12,
      "name": "floatBufferViews",
      "target": 34962
    },
    {
      "buffer": 0,
      "byteLength": 169216,
      "byteOffset": 280520,
      "byteStride": 16,
      "name": "floatBufferViews",
      "target": 34962
    },
    {
      "buffer": 0,
      "byteLength": 320,
      "byteOffset": 449736,
      "name": "floatBufferViews"
    },
    {
      "buffer": 0,
      "byteLength": 22640,
      "byteOffset": 450056,
      "name": "floatBufferViews"
    },
    {
      "buffer": 0,
      "byteLength": 38148,
      "byteOffset": 472696,
      "byteStride": 12,
      "name": "floatBufferViews"
    },
    {
      "buffer": 0,
      "byteLength": 39696,
      "byteOffset": 510844,
      "byteStride": 16,
      "name": "floatBufferViews"
    }
  ],
  "buffers": [
    {
      "byteLength": 550540,
      "uri": "scene.bin"
    }
  ],
  "images": [
    {
      "uri": "textures/Gyroscope_baseColor.png"
    },
    {
      "uri": "textures/Gyroscope_metallicRoughness.png"
    },
    {
      "uri": "textures/Gyroscope_emissive.png"
    },
    {
      "uri": "textures/Gyroscope_normal.png"
    }
  ],
  "materials": [
    {
      "doubleSided": true,
      "emissiveFactor": [
        1.0,
        1.0,
        1.0
      ],
      "emissiveTexture": {
        "index": 2
      },
      "name": "Gyroscope",
      "normalTexture": {
        "index": 3
      },
      "pbrMetallicRoughness": {
        "baseColorTexture": {
          "index": 0
        },
        "metallicRoughnessTexture": {
          "index": 1
        }
      }
    }
  ],
  "meshes": [
    {
      "name": "Object_0",
      "primitives": [
        {
          "attributes": {
            "JOINTS_0": 6,
            "NORMAL": 1,
            "POSITION": 0,
            "TANGENT": 2,
            "TEXCOORD_0": 3,
            "WEIGHTS_0": 7
          },
          "indices": 4,
          "material": 0,
          "mode": 4
        }
      ]
    }
  ],
  "nodes": [
    {
      "children": [
        1
      ],
      "matrix": [
        0.9569160342216492,
        0.0,
        0.0,
        0.0,
        0.0,
        2.1247804276517383e-16,
        -0.9569160342216492,
        0.0,
        0.0,
        0.9569160342216492,
        2.1247804276517383e-16,
        0.0,
        0.0,
        0.0,
        0.0,
        1.0
      ],
      "name": "Sketchfab_model"
    },
    {
      "children": [
        2
      ],
      "name": "root"
    },
    {
      "children": [
        3
      ],
      "matrix": [
        1.0,
        0.0,
        0.0,
        0.0,
        0.0,
        2.220446049250313e-16,
        1.0,
        0.0,
        0.0,
        -1.0,
        2.220446049250313e-16,
        0.0,
        0.0,
        0.0,
        0.0,
        1.0
      ],
      "name": "GLTF_SceneRootNode"
    },
    {
      "children": [
        4
      ],
      "name": "gyro rig_5"
    },
    {
      "children": [
        5,
        7,
        6
      ],
      "name": "GLTF_created_0"
    },
    {
      "children": [
        8,
        11
      ],
      "name": "GLTF_created_0_rootJoint"
    },
    {
      "name": "Torus.Outer.001_4"
    },
    {
      "mesh": 0,
      "name": "Object_7",
      "skin": 0
    },
    {
      "children": [
        9
      ],
      "name": "ring.outer_2",
      "translation": [
        -2.0563602447509766e-06,
        -0.4033691883087158,
        -1.2458865512599004e-06
      ]
    },
    {
      "children": [
        10
      ],
      "name": "ring.middle_1",
      "rotation": [
        -0.7071068286895752,
        0.0,
        0.0,
        0.7071068286895752
      ],
      "translation": [
        3.0249357223510742e-06,
        0.40338611602783203,
        0.3514515161514282
      ]
    },
    {
      "name": "ring.inner_0",
      "rotation": [
        -0.7071068286895752,
        0.0,
        0.0,
        0.7071068286895752
      ],
      "translation": [
        -5.960464477539063e-08,
        0.3514500558376312,
        0.2930293083190918
      ]
    },
    {
      "name": "rune_3",
      "rotation": [
        0.0,
        1.1920928955078125e-07,
        0.0,
        1.0
      ]
    }
  ],
  "samplers": [
    {
      "magFilter": 9729,
      "minFilter": 9987,
      "wrapS": 10497,
      "wrapT": 10497
    }
  ],
  "scene": 0,
  "scenes": [
    {
      "name": "Sketchfab_Scene",
      "nodes": [
        0
      ]
    }
  ],
  "skins": [
    {
      "inverseBindMatrices": 5,
      "joints": [
        5,
        8,
        9,
        10,
        11
      ],
      "skeleton": 5
    }
  ],
  "textures": [
    {
      "sampler": 0,
      "source": 0
    },
    {
      "sampler": 0,
      "source": 1
    },
    {
      "sampler": 0,
      "source": 2
    },
    {
      "sampler": 0,
      "source": 3
    }
  ]
}
