{
  "asset": {
    "generator": "glTF-Transform v3.7.0",
    "version": "2.0"
  },
  "accessors": [
    {
      "name": "accessorIndices",
      "type": "SCALAR",
      "componentType": 5123,
      "count": 78528,
      "bufferView": 0,
      "byteOffset": 0
    },
    {
      "name": "accessorIndices",
      "type": "SCALAR",
      "componentType": 5123,
      "count": 29376,
      "bufferView": 0,
      "byteOffset": 157056
    },
    {
      "name": "accessorIndices",
      "type": "SCALAR",
      "componentType": 5123,
      "count": 11520,
      "bufferView": 0,
      "byteOffset": 215808
    },
    {
      "name": "accessorIndices",
      "type": "SCALAR",
      "componentType": 5123,
      "count": 384,
      "bufferView": 0,
      "byteOffset": 238848
    },
    {
      "name": "accessorPositions",
      "type": "VEC3",
      "componentType": 5126,
      "count": 14350,
      "max": [
        0.41253557801246643,
        0.6861773133277893,
        0.293540358543396
      ],
      "min": [
        -0.41402238607406616,
        0.2265738844871521,
        -0.2767251133918762
      ],
      "bufferView": 1,
      "byteOffset": 0
    },
    {
      "name": "accessorNormals",
      "type": "VEC3",
      "componentType": 5126,
      "count": 14350,
      "bufferView": 1,
      "byteOffset": 12
    },
    {
      "name": "accessorUVs",
      "type": "VEC2",
      "componentType": 5126,
      "count": 14350,
      "bufferView": 1,
      "byteOffset": 24
    },
    {
      "name": "accessorUV2s",
      "type": "VEC2",
      "componentType": 5126,
      "count": 14350,
      "bufferView": 1,
      "byteOffset": 32
    },
    {
      "name": "accessorPositions",
      "type": "VEC3",
      "componentType": 5126,
      "count": 5508,
      "max": [
        0.3903724253177643,
        0.6404843330383301,
        0.2655284106731415
      ],
      "min": [
        -0.3916984498500824,
        0.005148450843989849,
        -0.27543526887893677
      ],
      "bufferView": 2,
      "byteOffset": 0
    },
    {
      "name": "accessorNormals",
      "type": "VEC3",
      "componentType": 5126,
      "count": 5508,
      "bufferView": 2,
      "byteOffset": 12
    },
    {
      "name": "accessorUVs",
      "type": "VEC2",
      "componentType": 5126,
      "count": 5508,
      "bufferView": 2,
      "byteOffset": 24
    },
    {
      "name": "accessorUV2s",
      "type": "VEC2",
      "componentType": 5126,
      "count": 5508,
      "bufferView": 2,
      "byteOffset": 32
    },
    {
      "name": "accessorPositions",
      "type": "VEC3",
      "componentType": 5126,
      "count": 2520,
      "max": [
        0.33995118737220764,
        0.5014813542366028,
        0.22082294523715973
      ],
      "min": [
        -0.33995118737220764,
        -0.00006977785233175382,
        -0.2393345683813095
      ],
      "bufferView": 3,
      "byteOffset": 0
    },
    {
      "name": "accessorNormals",
      "type": "VEC3",
      "componentType": 5126,
      "count": 2520,
      "bufferView": 3,
      "byteOffset": 12
    },
    {
      "name": "accessorUVs",
      "type": "VEC2",
      "componentType": 5126,
      "count": 2520,
      "bufferView": 3,
      "byteOffset": 24
    },
    {
      "name": "accessorUV2s",
      "type": "VEC2",
      "componentType": 5126,
      "count": 2520,
      "bufferView": 3,
      "byteOffset": 32
    },
    {
      "name": "accessorPositions",
      "type": "VEC3",
      "componentType": 5126,
      "count": 81,
      "max": [
        0.13618184626102448,
        0.010055896826088428,
        0.04677271470427513
      ],
      "min": [
        -0.13588549196720123,
        0.005801851861178875,
        -0.11070986837148666
      ],
      "bufferView": 4,
      "byteOffset": 0
    },
    {
      "name": "accessorNormals",
      "type": "VEC3",
      "componentType": 5126,
      "count": 81,
      "bufferView": 4,
      "byteOffset": 12
    },
    {
      "name": "accessorUVs",
      "type": "VEC2",
      "componentType": 5126,
      "count": 81,
      "bufferView": 4,
      "byteOffset": 24
    },
    {
      "name": "accessorUV2s",
      "type": "VEC2",
      "componentType": 5126,
      "count": 81,
      "bufferView": 4,
      "byteOffset": 32
    }
  ],
  "bufferViews": [
    {
      "buffer": 0,
      "byteOffset": 0,
      "byteLength": 239616,
      "target": 34963
    },
    {
      "buffer": 0,
      "byteOffset": 239616,
      "byteLength": 574000,
      "byteStride": 40,
      "target": 34962
    },
    {
      "buffer": 0,
      "byteOffset": 813616,
      "byteLength": 220320,
      "byteStride": 40,
      "target": 34962
    },
    {
      "buffer": 0,
      "byteOffset": 1033936,
      "byteLength": 100800,
      "byteStride": 40,
      "target": 34962
    },
    {
      "buffer": 0,
      "byteOffset": 1134736,
      "byteLength": 3240,
      "byteStride": 40,
      "target": 34962
    }
  ],
  "samplers": [
    {
      "magFilter": 9729,
      "minFilter": 9987,
      "wrapS": 10497,
      "wrapT": 10497
    }
  ],
  "textures": [
    {
      "source": 2,
      "sampler": 0
    },
    {
      "source": 0,
      "sampler": 0
    },
    {
      "source": 1,
      "sampler": 0
    },
    {
      "source": 3,
      "sampler": 0
    },
    {
      "source": 4,
      "sampler": 0
    },
    {
      "source": 5,
      "sampler": 0
    },
    {
      "source": 6,
      "sampler": 0
    }
  ],
  "images": [
    {
      "mimeType": "image/jpeg",
      "uri": "./chair_fabric_normal.jpg"
    },
    {
      "mimeType": "image/jpeg",
      "uri": "./chair_occlusion.jpg"
    },
    {
      "mimeType": "image/jpeg",
      "uri": "./chair_fabric_albedo.jpg"
    },
    {
      "mimeType": "image/jpeg",
      "uri": "./chair_wood_albedo.jpg"
    },
    {
      "mimeType": "image/jpeg",
      "uri": "./chair_woodbrown_roughnessmetallic.jpg"
    },
    {
      "mimeType": "image/jpeg",
      "uri": "./chair_label.jpg"
    },
    {
      "mimeType": "image/jpeg",
      "uri": "./chair_woodblack_roughnessmetallic.jpg"
    }
  ],
  "buffers": [
    {
      "uri": "SheenChair.bin",
      "byteLength": 1137976
    }
  ],
  "materials": [
    {
      "name": "fabric Mystere Mango Velvet",
      "pbrMetallicRoughness": {
        "baseColorFactor": [
          0.883,
          0.035,
          0,
          1
        ],
        "roughnessFactor": 0.8,
        "metallicFactor": 0,
        "baseColorTexture": {
          "index": 0,
          "extensions": {
            "KHR_texture_transform": {
              "offset": [
                -3,
                3
              ],
              "scale": [
                7,
                7
              ],
              "texCoord": 0
            }
          }
        }
      },
      "normalTexture": {
        "index": 1,
        "scale": 0.6,
        "extensions": {
          "KHR_texture_transform": {
            "offset": [
              -0.5,
              0.5
            ],
            "scale": [
              2,
              2
            ],
            "texCoord": 0
          }
        }
      },
      "occlusionTexture": {
        "index": 2,
        "texCoord": 1,
        "extensions": {
          "KHR_texture_transform": {
            "texCoord": 1
          }
        }
      },
      "extensions": {
        "KHR_materials_sheen": {
          "sheenColorFactor": [
            1,
            0.329,
            0.1
          ],
          "sheenRoughnessFactor": 0.8
        }
      }
    },
    {
      "name": "wood Brown",
      "pbrMetallicRoughness": {
        "baseColorFactor": [
          0.14,
          0.07,
          0.01,
          1
        ],
        "baseColorTexture": {
          "index": 3,
          "extensions": {
            "KHR_texture_transform": {
              "offset": [
                -0.8635584,
                1.12502563
              ],
              "rotation": 0.08726647,
              "scale": [
                3,
                3
              ],
              "texCoord": 0
            }
          }
        },
        "metallicRoughnessTexture": {
          "index": 4,
          "extensions": {
            "KHR_texture_transform": {
              "offset": [
                -0.8635584,
                1.12502563
              ],
              "rotation": 0.08726647,
              "scale": [
                3,
                3
              ],
              "texCoord": 0
            }
          }
        }
      },
      "occlusionTexture": {
        "index": 2,
        "texCoord": 1,
        "extensions": {
          "KHR_texture_transform": {
            "texCoord": 1
          }
        }
      }
    },
    {
      "name": "metal",
      "pbrMetallicRoughness": {
        "baseColorFactor": [
          0.28,
          0.26,
          0.23,
          1
        ],
        "roughnessFactor": 0.3
      },
      "occlusionTexture": {
        "index": 2,
        "texCoord": 1,
        "extensions": {
          "KHR_texture_transform": {
            "texCoord": 1
          }
        }
      }
    },
    {
      "name": "label",
      "pbrMetallicRoughness": {
        "metallicFactor": 0,
        "baseColorTexture": {
          "index": 5,
          "extensions": {
            "KHR_texture_transform": {
              "texCoord": 0
            }
          }
        }
      },
      "occlusionTexture": {
        "index": 2,
        "texCoord": 1,
        "extensions": {
          "KHR_texture_transform": {
            "texCoord": 1
          }
        }
      }
    },
    {
      "name": "fabric Mystere Peacock Velvet",
      "pbrMetallicRoughness": {
        "baseColorFactor": [
          0,
          0.094,
          0.099,
          1
        ],
        "roughnessFactor": 0.8,
        "baseColorTexture": {
          "index": 0,
          "extensions": {
            "KHR_texture_transform": {
              "offset": [
                -3,
                3
              ],
              "scale": [
                7,
                7
              ],
              "texCoord": 0
            }
          }
        }
      },
      "normalTexture": {
        "index": 1,
        "scale": 0.6,
        "extensions": {
          "KHR_texture_transform": {
            "offset": [
              -0.5,
              0.5
            ],
            "scale": [
              2,
              2
            ],
            "texCoord": 0
          }
        }
      },
      "occlusionTexture": {
        "index": 2,
        "texCoord": 1,
        "extensions": {
          "KHR_texture_transform": {
            "texCoord": 1
          }
        }
      },
      "extensions": {
        "KHR_materials_sheen": {
          "sheenColorFactor": [
            0.013,
            0.284,
            0.298
          ],
          "sheenRoughnessFactor": 0.8
        }
      }
    },
    {
      "name": "wood Black",
      "pbrMetallicRoughness": {
        "baseColorFactor": [
          0.036,
          0.036,
          0.036,
          1
        ],
        "baseColorTexture": {
          "index": 3,
          "extensions": {
            "KHR_texture_transform": {
              "offset": [
                -0.8635584,
                1.12502563
              ],
              "rotation": 0.08726647,
              "scale": [
                3,
                3
              ],
              "texCoord": 0
            }
          }
        },
        "metallicRoughnessTexture": {
          "index": 6,
          "extensions": {
            "KHR_texture_transform": {
              "offset": [
                -0.8635584,
                1.12502563
              ],
              "rotation": 0.08726647,
              "scale": [
                3,
                3
              ],
              "texCoord": 0
            }
          }
        }
      },
      "occlusionTexture": {
        "index": 2,
        "texCoord": 1,
        "extensions": {
          "KHR_texture_transform": {
            "texCoord": 1
          }
        }
      }
    }
  ],
  "meshes": [
    {
      "name": "SheenChair_fabric",
      "primitives": [
        {
          "attributes": {
            "POSITION": 4,
            "NORMAL": 5,
            "TEXCOORD_0": 6,
            "TEXCOORD_1": 7
          },
          "mode": 4,
          "material": 0,
          "indices": 0,
          "extensions": {
            "KHR_materials_variants": {
              "mappings": [
                {
                  "material": 0,
                  "variants": [
                    0
                  ]
                },
                {
                  "material": 4,
                  "variants": [
                    1
                  ]
                }
              ]
            }
          }
        }
      ]
    },
    {
      "name": "SheenChair_wood",
      "primitives": [
        {
          "attributes": {
            "POSITION": 8,
            "NORMAL": 9,
            "TEXCOORD_0": 10,
            "TEXCOORD_1": 11
          },
          "mode": 4,
          "material": 1,
          "indices": 1,
          "extensions": {
            "KHR_materials_variants": {
              "mappings": [
                {
                  "material": 1,
                  "variants": [
                    0
                  ]
                },
                {
                  "material": 5,
                  "variants": [
                    1
                  ]
                }
              ]
            }
          }
        }
      ]
    },
    {
      "name": "SheenChair_metal",
      "primitives": [
        {
          "attributes": {
            "POSITION": 12,
            "NORMAL": 13,
            "TEXCOORD_0": 14,
            "TEXCOORD_1": 15
          },
          "mode": 4,
          "material": 2,
          "indices": 2
        }
      ]
    },
    {
      "name": "SheenChair_label",
      "primitives": [
        {
          "attributes": {
            "POSITION": 16,
            "NORMAL": 17,
            "TEXCOORD_0": 18,
            "TEXCOORD_1": 19
          },
          "mode": 4,
          "material": 3,
          "indices": 3
        }
      ]
    }
  ],
  "nodes": [
    {
      "name": "SheenChair_fabric",
      "mesh": 0
    },
    {
      "name": "SheenChair_wood",
      "mesh": 1
    },
    {
      "name": "SheenChair_metal",
      "mesh": 2
    },
    {
      "name": "SheenChair_label",
      "translation": [
        -0.0006629925,
        0.23622,
        0.0596007444
      ],
      "rotation": [
        -0.0436193831,
        0,
        0,
        0.999048233
      ],
      "mesh": 3
    }
  ],
  "scenes": [
    {
      "nodes": [
        0,
        1,
        2,
        3
      ]
    }
  ],
  "scene": 0,
  "extensionsUsed": [
    "KHR_materials_sheen",
    "KHR_materials_variants",
    "KHR_texture_transform"
  ],
  "extensionsRequired": [
    "KHR_texture_transform"
  ],
  "extensions": {
    "KHR_materials_variants": {
      "variants": [
        {
          "name": "Mango Velvet"
        },
        {
          "name": "Peacock Velvet"
        }
      ]
    }
  }
}