{
  "asset": {
    "generator": "glTF-Transform v3.7.0",
    "version": "2.0"
  },
  "accessors": [
    {
      "type": "SCALAR",
      "componentType": 5123,
      "count": 13710,
      "bufferView": 0,
      "byteOffset": 0
    },
    {
      "type": "SCALAR",
      "componentType": 5123,
      "count": 23772,
      "bufferView": 0,
      "byteOffset": 27420
    },
    {
      "type": "SCALAR",
      "componentType": 5123,
      "count": 12426,
      "bufferView": 0,
      "byteOffset": 74964
    },
    {
      "type": "SCALAR",
      "componentType": 5123,
      "count": 23328,
      "bufferView": 0,
      "byteOffset": 99816
    },
    {
      "type": "SCALAR",
      "componentType": 5123,
      "count": 3924,
      "bufferView": 0,
      "byteOffset": 146472
    },
    {
      "type": "VEC3",
      "componentType": 5126,
      "count": 3565,
      "max": [
        0.07835790514945984,
        0.0580633245408535,
        0.20226606726646423
      ],
      "min": [
        -0.13554362952709198,
        0.00025549158453941345,
        -0.06055775657296181
      ],
      "bufferView": 1,
      "byteOffset": 0
    },
    {
      "type": "VEC3",
      "componentType": 5126,
      "count": 3565,
      "bufferView": 1,
      "byteOffset": 12
    },
    {
      "type": "VEC2",
      "componentType": 5126,
      "count": 3565,
      "bufferView": 1,
      "byteOffset": 24
    },
    {
      "type": "VEC3",
      "componentType": 5126,
      "count": 6121,
      "max": [
        0.0361202247440815,
        0.06000663340091705,
        0.0701393187046051
      ],
      "min": [
        -0.020181655883789062,
        0.007611287757754326,
        0.010811969637870789
      ],
      "bufferView": 2,
      "byteOffset": 0
    },
    {
      "type": "VEC3",
      "componentType": 5126,
      "count": 6121,
      "bufferView": 2,
      "byteOffset": 12
    },
    {
      "type": "VEC2",
      "componentType": 5126,
      "count": 6121,
      "bufferView": 2,
      "byteOffset": 24
    },
    {
      "type": "VEC3",
      "componentType": 5126,
      "count": 2645,
      "max": [
        0.05469425767660141,
        0.07397206872701645,
        0.06653554737567902
      ],
      "min": [
        -0.06237267702817917,
        0.01534944772720337,
        -0.01672680675983429
      ],
      "bufferView": 3,
      "byteOffset": 0
    },
    {
      "type": "VEC3",
      "componentType": 5126,
      "count": 2645,
      "bufferView": 3,
      "byteOffset": 12
    },
    {
      "type": "VEC2",
      "componentType": 5126,
      "count": 2645,
      "bufferView": 3,
      "byteOffset": 24
    },
    {
      "type": "VEC3",
      "componentType": 5126,
      "count": 7247,
      "max": [
        0.07372476160526276,
        0.07810214161872864,
        0.019579116255044937
      ],
      "min": [
        -0.07361526787281036,
        0.0005347318947315216,
        -0.018698200583457947
      ],
      "bufferView": 4,
      "byteOffset": 0
    },
    {
      "type": "VEC3",
      "componentType": 5126,
      "count": 7247,
      "bufferView": 4,
      "byteOffset": 12
    },
    {
      "type": "VEC2",
      "componentType": 5126,
      "count": 7247,
      "bufferView": 4,
      "byteOffset": 24
    },
    {
      "type": "VEC3",
      "componentType": 5126,
      "count": 1034,
      "max": [
        0.035122036933898926,
        0.0589970201253891,
        0.02088724821805954
      ],
      "min": [
        -0.015254074707627296,
        0.008620904758572578,
        0.014200985431671143
      ],
      "bufferView": 5,
      "byteOffset": 0
    },
    {
      "type": "VEC3",
      "componentType": 5126,
      "count": 1034,
      "bufferView": 5,
      "byteOffset": 12
    },
    {
      "type": "VEC2",
      "componentType": 5126,
      "count": 1034,
      "bufferView": 5,
      "byteOffset": 24
    }
  ],
  "bufferViews": [
    {
      "buffer": 0,
      "byteOffset": 0,
      "byteLength": 154320,
      "target": 34963
    },
    {
      "buffer": 0,
      "byteOffset": 154320,
      "byteLength": 114080,
      "byteStride": 32,
      "target": 34962
    },
    {
      "buffer": 0,
      "byteOffset": 268400,
      "byteLength": 195872,
      "byteStride": 32,
      "target": 34962
    },
    {
      "buffer": 0,
      "byteOffset": 464272,
      "byteLength": 84640,
      "byteStride": 32,
      "target": 34962
    },
    {
      "buffer": 0,
      "byteOffset": 548912,
      "byteLength": 231904,
      "byteStride": 32,
      "target": 34962
    },
    {
      "buffer": 0,
      "byteOffset": 780816,
      "byteLength": 33088,
      "byteStride": 32,
      "target": 34962
    }
  ],
  "samplers": [
    {
      "magFilter": 9729,
      "minFilter": 9987,
      "wrapS": 10497,
      "wrapT": 10497
    }
  ],
  "textures": [
    {
      "source": 1,
      "sampler": 0
    },
    {
      "source": 0,
      "sampler": 0
    },
    {
      "source": 2,
      "sampler": 0
    },
    {
      "source": 4,
      "sampler": 0
    },
    {
      "source": 3,
      "sampler": 0
    },
    {
      "source": 5,
      "sampler": 0
    },
    {
      "source": 7,
      "sampler": 0
    },
    {
      "source": 6,
      "sampler": 0
    },
    {
      "source": 8,
      "sampler": 0
    }
  ],
  "images": [
    {
      "name": "Camera_01_strap_nor_gl",
      "mimeType": "image/jpeg",
      "uri": "textures/Camera_01_strap_nor_gl_1k.jpg"
    },
    {
      "name": "Camera_01_strap_diff",
      "mimeType": "image/jpeg",
      "uri": "textures/Camera_01_strap_diff_1k.jpg"
    },
    {
      "name": "Camera_01_strap_metallic-Camera_01_strap_roughness",
      "mimeType": "image/jpeg",
      "uri": "textures/Camera_01_strap_arm_1k.jpg"
    },
    {
      "name": "Camera_01_lens_body_nor_gl",
      "mimeType": "image/jpeg",
      "uri": "textures/Camera_01_lens_body_nor_gl_1k.jpg"
    },
    {
      "name": "Camera_01_lens_body_diff",
      "mimeType": "image/jpeg",
      "uri": "textures/Camera_01_lens_body_diff_1k.jpg"
    },
    {
      "name": "Camera_01_lens_body_metallic-Camera_01_lens_body_roughness",
      "mimeType": "image/jpeg",
      "uri": "textures/Camera_01_lens_body_arm_1k.jpg"
    },
    {
      "name": "Camera_01_body_nor_gl",
      "mimeType": "image/jpeg",
      "uri": "textures/Camera_01_body_nor_gl_1k.jpg"
    },
    {
      "name": "Camera_01_body_diff",
      "mimeType": "image/jpeg",
      "uri": "textures/Camera_01_body_diff_1k.jpg"
    },
    {
      "name": "Camera_01_body_metallic-Camera_01_body_roughness",
      "mimeType": "image/jpeg",
      "uri": "textures/Camera_01_body_arm_1k.jpg"
    }
  ],
  "buffers": [
    {
      "uri": "Camera_01.bin",
      "byteLength": 813904
    }
  ],
  "materials": [
    {
      "name": "Camera_01_strap",
      "doubleSided": true,
      "pbrMetallicRoughness": {
        "baseColorTexture": {
          "index": 0
        },
        "metallicRoughnessTexture": {
          "index": 2
        }
      },
      "normalTexture": {
        "index": 1
      }
    },
    {
      "name": "Camera_01_lens_body",
      "doubleSided": true,
      "pbrMetallicRoughness": {
        "baseColorTexture": {
          "index": 3
        },
        "metallicRoughnessTexture": {
          "index": 5
        }
      },
      "normalTexture": {
        "index": 4
      }
    },
    {
      "name": "Camera_01_lens",
      "doubleSided": true,
      "pbrMetallicRoughness": {
        "baseColorFactor": [
          0.800000011920929,
          0.800000011920929,
          0.800000011920929,
          1
        ],
        "roughnessFactor": 0,
        "metallicFactor": 0
      },
      "extensions": {
        "KHR_materials_transmission": {
          "transmissionFactor": 1
        }
      }
    },
    {
      "name": "Camera_01_body",
      "doubleSided": true,
      "pbrMetallicRoughness": {
        "baseColorTexture": {
          "index": 6
        },
        "metallicRoughnessTexture": {
          "index": 8
        }
      },
      "normalTexture": {
        "index": 7
      }
    }
  ],
  "meshes": [
    {
      "name": "Mesh.024",
      "primitives": [
        {
          "attributes": {
            "POSITION": 5,
            "NORMAL": 6,
            "TEXCOORD_0": 7
          },
          "mode": 4,
          "material": 0,
          "indices": 0
        }
      ]
    },
    {
      "name": "Mesh.016",
      "primitives": [
        {
          "attributes": {
            "POSITION": 8,
            "NORMAL": 9,
            "TEXCOORD_0": 10
          },
          "mode": 4,
          "material": 1,
          "indices": 1
        },
        {
          "attributes": {
            "POSITION": 11,
            "NORMAL": 12,
            "TEXCOORD_0": 13
          },
          "mode": 4,
          "material": 2,
          "indices": 2
        },
        {
          "attributes": {
            "POSITION": 14,
            "NORMAL": 15,
            "TEXCOORD_0": 16
          },
          "mode": 4,
          "material": 3,
          "indices": 3
        },
        {
          "attributes": {
            "POSITION": 17,
            "NORMAL": 18,
            "TEXCOORD_0": 19
          },
          "mode": 4,
          "material": 0,
          "indices": 4
        }
      ]
    }
  ],
  "nodes": [
    {
      "name": "Camera_01_strap",
      "mesh": 0
    },
    {
      "name": "Camera_01",
      "mesh": 1
    }
  ],
  "scenes": [
    {
      "name": "Scene",
      "nodes": [
        0,
        1
      ]
    }
  ],
  "scene": 0,
  "extensionsUsed": [
    "KHR_materials_transmission"
  ]
}