<svg width="254" height="256" viewBox="0 0 254 256" fill="none" xmlns="http://www.w3.org/2000/svg">
<g opacity="0.3">
<g opacity="0.3">
<g opacity="0.3">
<path opacity="0.3" fill-rule="evenodd" clip-rule="evenodd" d="M7.44931 229.498C7.85508 229.1 8.5107 229.1 8.91447 229.498C9.32024 229.895 9.32024 230.538 8.91447 230.936C8.5107 231.333 7.85508 231.333 7.44931 230.936C7.04554 230.538 7.04554 229.895 7.44931 229.498Z" fill="#8B9DC2"/>
<path opacity="0.3" fill-rule="evenodd" clip-rule="evenodd" d="M56.9977 207.159C57.4015 206.761 58.0591 206.761 58.4628 207.159C58.8686 207.556 58.8686 208.199 58.4628 208.597C58.0591 208.994 57.4015 208.994 56.9977 208.597C56.5919 208.199 56.5919 207.556 56.9977 207.159Z" fill="#8B9DC2"/>
<path opacity="0.3" fill-rule="evenodd" clip-rule="evenodd" d="M55.6539 231.697C56.0597 231.299 56.7153 231.299 57.1191 231.697C57.5249 232.094 57.5249 232.737 57.1191 233.135C56.7153 233.532 56.0597 233.532 55.6539 233.135C55.2482 232.737 55.2482 232.094 55.6539 231.697Z" fill="#8B9DC2"/>
<path opacity="0.3" fill-rule="evenodd" clip-rule="evenodd" d="M72.4508 253.709C72.8566 253.311 73.5122 253.311 73.916 253.709C74.3217 254.106 74.3217 254.749 73.916 255.147C73.5122 255.544 72.8566 255.544 72.4508 255.147C72.045 254.749 72.045 254.106 72.4508 253.709Z" fill="#8B9DC2"/>
<path opacity="0.3" fill-rule="evenodd" clip-rule="evenodd" d="M118.039 222.358C118.444 221.96 119.1 221.96 119.504 222.358C119.91 222.755 119.91 223.398 119.504 223.796C119.1 224.193 118.444 224.193 118.039 223.796C117.633 223.398 117.633 222.755 118.039 222.358Z" fill="#8B9DC2"/>
<path opacity="0.3" fill-rule="evenodd" clip-rule="evenodd" d="M137.435 243.9C137.841 243.503 138.497 243.503 138.9 243.9C139.306 244.297 139.306 244.941 138.9 245.338C138.497 245.735 137.841 245.735 137.435 245.338C137.029 244.941 137.029 244.297 137.435 243.9Z" fill="#8B9DC2"/>
<path opacity="0.3" fill-rule="evenodd" clip-rule="evenodd" d="M143.736 183.746C144.14 183.349 144.797 183.349 145.201 183.746C145.607 184.144 145.607 184.787 145.201 185.184C144.797 185.582 144.14 185.582 143.736 185.184C143.33 184.787 143.33 184.144 143.736 183.746Z" fill="#8B9DC2"/>
<path opacity="0.3" fill-rule="evenodd" clip-rule="evenodd" d="M123.865 127.87C124.269 127.473 124.926 127.473 125.33 127.87C125.736 128.267 125.736 128.911 125.33 129.308C124.926 129.705 124.269 129.705 123.865 129.308C123.459 128.911 123.459 128.267 123.865 127.87Z" fill="#8B9DC2"/>
<path opacity="0.3" fill-rule="evenodd" clip-rule="evenodd" d="M116.004 169.522C116.409 169.125 117.065 169.125 117.469 169.522C117.874 169.92 117.874 170.563 117.469 170.96C117.065 171.358 116.409 171.358 116.004 170.96C115.598 170.563 115.598 169.92 116.004 169.522Z" fill="#8B9DC2"/>
<path opacity="0.3" fill-rule="evenodd" clip-rule="evenodd" d="M34.5153 217.067C34.921 216.67 35.5767 216.67 35.9804 217.067C36.3862 217.465 36.3862 218.108 35.9804 218.505C35.5767 218.903 34.921 218.903 34.5153 218.505C34.1095 218.108 34.1095 217.465 34.5153 217.067Z" fill="#8B9DC2"/>
<path opacity="0.3" fill-rule="evenodd" clip-rule="evenodd" d="M73.9215 59.8647C74.3273 59.4673 74.9829 59.4673 75.3867 59.8647C75.7924 60.2622 75.7924 60.9053 75.3867 61.3028C74.9829 61.7003 74.3273 61.7003 73.9215 61.3028C73.5157 60.9053 73.5157 60.2622 73.9215 59.8647Z" fill="#8B9DC2"/>
<path opacity="0.3" fill-rule="evenodd" clip-rule="evenodd" d="M93.0739 34.0093C93.4776 33.6118 94.1352 33.6118 94.539 34.0093C94.9448 34.4067 94.9448 35.0499 94.539 35.4473C94.1352 35.8448 93.4776 35.8448 93.0739 35.4473C92.6681 35.0499 92.6681 34.4067 93.0739 34.0093Z" fill="#8B9DC2"/>
<path opacity="0.3" fill-rule="evenodd" clip-rule="evenodd" d="M4.6305 155.667C5.03626 155.27 5.69189 155.27 6.09566 155.667C6.50142 156.065 6.50142 156.708 6.09566 157.105C5.69189 157.503 5.03626 157.503 4.6305 157.105C4.22473 156.708 4.22473 156.065 4.6305 155.667Z" fill="#8B9DC2"/>
<path opacity="0.3" fill-rule="evenodd" clip-rule="evenodd" d="M27.3024 137.509C27.7081 137.112 28.3638 137.112 28.7675 137.509C29.1733 137.907 29.1733 138.55 28.7675 138.947C28.3638 139.345 27.7081 139.345 27.3024 138.947C26.8966 138.55 26.8966 137.907 27.3024 137.509Z" fill="#8B9DC2"/>
<path opacity="0.3" fill-rule="evenodd" clip-rule="evenodd" d="M28.4586 154.07C28.8624 153.672 29.52 153.672 29.9238 154.07C30.3296 154.467 30.3296 155.11 29.9238 155.508C29.52 155.905 28.8624 155.905 28.4586 155.508C28.0529 155.11 28.0529 154.467 28.4586 154.07Z" fill="#8B9DC2"/>
<path opacity="0.3" fill-rule="evenodd" clip-rule="evenodd" d="M45.5821 137.267C45.9879 136.87 46.6435 136.87 47.0473 137.267C47.4531 137.665 47.4531 138.308 47.0473 138.706C46.6435 139.103 45.9879 139.103 45.5821 138.706C45.1784 138.308 45.1784 137.665 45.5821 137.267Z" fill="#8B9DC2"/>
<path opacity="0.3" fill-rule="evenodd" clip-rule="evenodd" d="M14.568 125.917C14.9738 125.519 15.6294 125.519 16.0332 125.917C16.4389 126.314 16.4389 126.957 16.0332 127.355C15.6294 127.752 14.9738 127.752 14.568 127.355C14.1622 126.957 14.1622 126.314 14.568 125.917Z" fill="#8B9DC2"/>
<path opacity="0.3" fill-rule="evenodd" clip-rule="evenodd" d="M70.7379 145.615C71.1437 145.217 71.7993 145.217 72.2031 145.615C72.6089 146.012 72.6089 146.655 72.2031 147.053C71.7993 147.45 71.1437 147.45 70.7379 147.053C70.3322 146.655 70.3322 146.012 70.7379 145.615Z" fill="#8B9DC2"/>
<path opacity="0.3" fill-rule="evenodd" clip-rule="evenodd" d="M87.4938 121.899C87.8975 121.502 88.5552 121.502 88.9589 121.899C89.3647 122.297 89.3647 122.94 88.9589 123.338C88.5552 123.735 87.8975 123.735 87.4938 123.338C87.088 122.94 87.088 122.297 87.4938 121.899Z" fill="#8B9DC2"/>
<path opacity="0.3" fill-rule="evenodd" clip-rule="evenodd" d="M88.5309 133.6C88.9367 133.202 89.5923 133.202 89.996 133.6C90.4018 133.997 90.4018 134.64 89.996 135.038C89.5923 135.435 88.9367 135.435 88.5309 135.038C88.1251 134.64 88.1251 133.997 88.5309 133.6Z" fill="#8B9DC2"/>
<path opacity="0.3" fill-rule="evenodd" clip-rule="evenodd" d="M19.4782 102.788C19.8819 102.39 20.5395 102.39 20.9433 102.788C21.3491 103.185 21.3491 103.828 20.9433 104.226C20.5395 104.623 19.8819 104.623 19.4782 104.226C19.0724 103.828 19.0724 103.185 19.4782 102.788Z" fill="#8B9DC2"/>
<path opacity="0.3" fill-rule="evenodd" clip-rule="evenodd" d="M89.4332 55.5336C89.839 55.1362 90.4946 55.1362 90.8984 55.5336C91.3042 55.9311 91.3042 56.5742 90.8984 56.9717C90.4946 57.3691 89.839 57.3691 89.4332 56.9717C89.0275 56.5742 89.0275 55.9311 89.4332 55.5336Z" fill="#8B9DC2"/>
<path opacity="0.3" fill-rule="evenodd" clip-rule="evenodd" d="M135.398 54.1976C135.804 53.8002 136.459 53.8002 136.863 54.1976C137.269 54.5951 137.269 55.2382 136.863 55.6357C136.459 56.0331 135.804 56.0331 135.398 55.6357C134.992 55.2382 134.992 54.5951 135.398 54.1976Z" fill="#8B9DC2"/>
<path opacity="0.3" fill-rule="evenodd" clip-rule="evenodd" d="M84.6637 11.4471C85.0695 11.0497 85.7251 11.0497 86.1289 11.4471C86.5346 11.8446 86.5346 12.4877 86.1289 12.8852C85.7251 13.2827 85.0695 13.2827 84.6637 12.8852C84.2579 12.4877 84.2579 11.8446 84.6637 11.4471Z" fill="#8B9DC2"/>
<path opacity="0.3" fill-rule="evenodd" clip-rule="evenodd" d="M24.6871 31.7281C25.0909 31.3307 25.7485 31.3307 26.1523 31.7281C26.5581 32.1256 26.5581 32.7687 26.1523 33.1662C25.7485 33.5637 25.0909 33.5637 24.6871 33.1662C24.2814 32.7687 24.2814 32.1256 24.6871 31.7281Z" fill="#8B9DC2"/>
<path opacity="0.3" fill-rule="evenodd" clip-rule="evenodd" d="M35.5504 46.6328C35.9562 46.2353 36.6118 46.2353 37.0156 46.6328C37.4213 47.0302 37.4213 47.6733 37.0156 48.0708C36.6118 48.4683 35.9562 48.4683 35.5504 48.0708C35.1447 47.6733 35.1447 47.0302 35.5504 46.6328Z" fill="#8B9DC2"/>
<path opacity="0.3" fill-rule="evenodd" clip-rule="evenodd" d="M17.8141 11.488C18.2199 11.0906 18.8755 11.0906 19.2793 11.488C19.685 11.8855 19.685 12.5286 19.2793 12.9261C18.8755 13.3235 18.2199 13.3235 17.8141 12.9261C17.4083 12.5286 17.4083 11.8855 17.8141 11.488Z" fill="#8B9DC2"/>
<path opacity="0.3" fill-rule="evenodd" clip-rule="evenodd" d="M0.677372 6.31628C1.08114 5.91882 1.73876 5.91882 2.14253 6.31628C2.5483 6.71374 2.5483 7.35687 2.14253 7.75433C1.73876 8.15179 1.08114 8.15179 0.677372 7.75433C0.271605 7.35687 0.271605 6.71374 0.677372 6.31628Z" fill="#8B9DC2"/>
<path opacity="0.3" fill-rule="evenodd" clip-rule="evenodd" d="M9.50745 71.9733C9.91322 71.5759 10.5688 71.5759 10.9726 71.9733C11.3784 72.3708 11.3784 73.0139 10.9726 73.4114C10.5688 73.8088 9.91322 73.8088 9.50745 73.4114C9.10168 73.0139 9.10168 72.3708 9.50745 71.9733Z" fill="#A0A8BE"/>
<path opacity="0.3" fill-rule="evenodd" clip-rule="evenodd" d="M15.8958 37.5844C16.1396 37.3408 16.5354 37.3408 16.7793 37.5844C17.0231 37.8281 17.0231 38.2236 16.7793 38.4672C16.5354 38.7109 16.1396 38.7109 15.8958 38.4672C15.6519 38.2236 15.6519 37.8281 15.8958 37.5844Z" fill="#9FA0CC"/>
<path opacity="0.3" fill-rule="evenodd" clip-rule="evenodd" d="M131.833 120.729C132.077 120.486 132.473 120.486 132.717 120.729C132.961 120.973 132.961 121.368 132.717 121.612C132.473 121.856 132.077 121.856 131.833 121.612C131.589 121.368 131.589 120.973 131.833 120.729Z" fill="#9FA0CC"/>
<path opacity="0.3" fill-rule="evenodd" clip-rule="evenodd" d="M122.017 180.579C122.261 180.335 122.657 180.335 122.9 180.579C123.144 180.822 123.144 181.218 122.9 181.461C122.657 181.705 122.261 181.705 122.017 181.461C121.773 181.218 121.773 180.822 122.017 180.579Z" fill="#9FA0CC"/>
<path opacity="0.3" fill-rule="evenodd" clip-rule="evenodd" d="M101.939 176.041C102.183 175.797 102.578 175.797 102.822 176.041C103.066 176.285 103.066 176.68 102.822 176.924C102.578 177.167 102.183 177.167 101.939 176.924C101.695 176.68 101.695 176.285 101.939 176.041Z" fill="#9FA0CC"/>
<path opacity="0.3" fill-rule="evenodd" clip-rule="evenodd" d="M118.656 245.143C118.899 244.9 119.295 244.9 119.539 245.143C119.783 245.387 119.783 245.782 119.539 246.026C119.295 246.27 118.899 246.27 118.656 246.026C118.412 245.782 118.412 245.387 118.656 245.143Z" fill="#9FA0CC"/>
<path opacity="0.3" fill-rule="evenodd" clip-rule="evenodd" d="M6.39579 249.78C6.63965 249.536 7.03542 249.536 7.27928 249.78C7.52314 250.023 7.52314 250.419 7.27928 250.662C7.03542 250.906 6.63965 250.906 6.39579 250.662C6.15193 250.419 6.15193 250.023 6.39579 249.78Z" fill="#B3BEC8" fill-opacity="0.581975"/>
<path opacity="0.3" fill-rule="evenodd" clip-rule="evenodd" d="M51.3567 220.067C51.6006 219.823 51.9964 219.823 52.2402 220.067C52.4841 220.311 52.4841 220.706 52.2402 220.95C51.9964 221.193 51.6006 221.193 51.3567 220.95C51.1129 220.706 51.1129 220.311 51.3567 220.067Z" fill="#B3BEC8" fill-opacity="0.581975"/>
<path opacity="0.3" fill-rule="evenodd" clip-rule="evenodd" d="M15.8958 201.568C16.1396 201.324 16.5354 201.324 16.7793 201.568C17.0231 201.811 17.0231 202.207 16.7793 202.45C16.5354 202.694 16.1396 202.694 15.8958 202.45C15.6519 202.207 15.6519 201.811 15.8958 201.568Z" fill="#B3BEC8" fill-opacity="0.581975"/>
<path opacity="0.3" fill-rule="evenodd" clip-rule="evenodd" d="M98.1966 213.025C98.4404 212.781 98.8362 212.781 99.0801 213.025C99.3239 213.269 99.3239 213.664 99.0801 213.908C98.8362 214.151 98.4404 214.151 98.1966 213.908C97.9527 213.664 97.9527 213.269 98.1966 213.025Z" fill="#B3BEC8" fill-opacity="0.581975"/>
<path opacity="0.3" fill-rule="evenodd" clip-rule="evenodd" d="M80.8977 216.72C81.1416 216.476 81.5374 216.476 81.7812 216.72C82.0251 216.966 82.0251 217.359 81.7812 217.603C81.5374 217.847 81.1416 217.847 80.8977 217.603C80.6539 217.359 80.6539 216.966 80.8977 216.72Z" fill="#B3BEC8" fill-opacity="0.581975"/>
<path opacity="0.3" fill-rule="evenodd" clip-rule="evenodd" d="M204.482 9.22554C204.726 8.98187 205.121 8.98187 205.365 9.22554C205.609 9.46921 205.609 9.86467 205.365 10.1083C205.121 10.352 204.726 10.352 204.482 10.1083C204.238 9.86467 204.238 9.46921 204.482 9.22554Z" fill="#B3BEC8" fill-opacity="0.581975"/>
<path opacity="0.3" fill-rule="evenodd" clip-rule="evenodd" d="M92.6341 113.903C92.8779 113.659 93.2737 113.659 93.5176 113.903C93.7614 114.146 93.7614 114.542 93.5176 114.785C93.2737 115.029 92.8779 115.029 92.6341 114.785C92.3902 114.542 92.3902 114.146 92.6341 113.903Z" fill="#B3BEC8" fill-opacity="0.581975"/>
<path opacity="0.3" fill-rule="evenodd" clip-rule="evenodd" d="M95.2356 87.7876C95.4795 87.5439 95.8753 87.5439 96.1191 87.7876C96.363 88.0313 96.363 88.4267 96.1191 88.6704C95.8753 88.9141 95.4795 88.9141 95.2356 88.6704C94.9918 88.4267 94.9918 88.0313 95.2356 87.7876Z" fill="#B3BEC8" fill-opacity="0.581975"/>
<path opacity="0.3" fill-rule="evenodd" clip-rule="evenodd" d="M112.284 13.302C112.528 13.0583 112.924 13.0583 113.168 13.302C113.412 13.5457 113.412 13.9411 113.168 14.1848C112.924 14.4285 112.528 14.4285 112.284 14.1848C112.041 13.9411 112.041 13.5457 112.284 13.302Z" fill="#B3BEC8" fill-opacity="0.581975"/>
<path opacity="0.3" fill-rule="evenodd" clip-rule="evenodd" d="M46.8391 170.425C47.083 170.181 47.4788 170.181 47.7226 170.425C47.9665 170.668 47.9665 171.064 47.7226 171.307C47.4788 171.551 47.083 171.551 46.8391 171.307C46.5953 171.064 46.5953 170.668 46.8391 170.425Z" fill="#B3BEC8" fill-opacity="0.581975"/>
<path opacity="0.3" fill-rule="evenodd" clip-rule="evenodd" d="M122.017 155.007C122.261 154.763 122.657 154.763 122.9 155.007C123.144 155.251 123.144 155.646 122.9 155.89C122.657 156.133 122.261 156.133 122.017 155.89C121.773 155.646 121.773 155.251 122.017 155.007Z" fill="#B3BEC8" fill-opacity="0.581975"/>
<path opacity="0.3" fill-rule="evenodd" clip-rule="evenodd" d="M106.154 151.293C106.397 151.049 106.793 151.049 107.037 151.293C107.281 151.537 107.281 151.932 107.037 152.176C106.793 152.42 106.397 152.42 106.154 152.176C105.91 151.932 105.91 151.537 106.154 151.293Z" fill="#B3BEC8" fill-opacity="0.581975"/>
<path opacity="0.3" fill-rule="evenodd" clip-rule="evenodd" d="M130.189 26.1995C130.433 25.9558 130.828 25.9558 131.072 26.1995C131.316 26.4431 131.316 26.8386 131.072 27.0823C130.828 27.3259 130.433 27.3259 130.189 27.0823C129.945 26.8386 129.945 26.4431 130.189 26.1995Z" fill="#B3BEC8" fill-opacity="0.581975"/>
<path opacity="0.3" fill-rule="evenodd" clip-rule="evenodd" d="M113.788 34.9113C114.032 34.6676 114.428 34.6676 114.672 34.9113C114.916 35.1549 114.916 35.5504 114.672 35.7941C114.428 36.0377 114.032 36.0377 113.788 35.7941C113.545 35.5504 113.545 35.1549 113.788 34.9113Z" fill="#B3BEC8" fill-opacity="0.581975"/>
<path opacity="0.3" fill-rule="evenodd" clip-rule="evenodd" d="M55.0647 9.48581C55.6743 8.87664 56.6637 8.87664 57.2734 9.48581C57.883 10.095 57.883 11.0836 57.2734 11.6928C56.6637 12.302 55.6743 12.302 55.0647 11.6928C54.455 11.0836 54.455 10.095 55.0647 9.48581Z" fill="#81B0D4"/>
<path opacity="0.3" fill-rule="evenodd" clip-rule="evenodd" d="M7.95333 94.9012C8.56298 94.292 9.55241 94.292 10.1621 94.9012C10.7717 95.5103 10.7717 96.499 10.1621 97.1082C9.55241 97.7173 8.56298 97.7173 7.95333 97.1082C7.34368 96.499 7.34368 95.5103 7.95333 94.9012Z" fill="#81B0D4"/>
<path opacity="0.3" fill-rule="evenodd" clip-rule="evenodd" d="M64.4143 33.625C65.0239 33.0158 66.0134 33.0158 66.623 33.625C67.2327 34.2341 67.2327 35.2228 66.623 35.832C66.0134 36.4411 65.0239 36.4411 64.4143 35.832C63.8046 35.2228 63.8046 34.2341 64.4143 33.625Z" fill="#81B0D4"/>
<path opacity="0.3" fill-rule="evenodd" clip-rule="evenodd" d="M114.871 77.6726C115.481 77.0634 116.47 77.0634 117.078 77.6726C117.69 78.2818 117.69 79.2704 117.078 79.8796C116.47 80.4888 115.481 80.4888 114.871 79.8796C114.262 79.2704 114.262 78.2818 114.871 77.6726Z" fill="#81B0D4"/>
<path opacity="0.3" fill-rule="evenodd" clip-rule="evenodd" d="M113.455 104.167C114.065 103.558 115.054 103.558 115.664 104.167C116.274 104.776 116.274 105.765 115.664 106.374C115.054 106.983 114.065 106.983 113.455 106.374C112.846 105.765 112.846 104.776 113.455 104.167Z" fill="#81B0D4"/>
<path opacity="0.3" fill-rule="evenodd" clip-rule="evenodd" d="M62.5881 81.4984C63.1977 80.8892 64.1872 80.8892 64.7968 81.4984C65.4065 82.1076 65.4065 83.0962 64.7968 83.7054C64.1872 84.3146 63.1977 84.3146 62.5881 83.7054C61.9784 83.0962 61.9784 82.1076 62.5881 81.4984Z" fill="#81B0D4"/>
<path opacity="0.3" fill-rule="evenodd" clip-rule="evenodd" d="M71.9358 237.067C72.5454 236.458 73.5348 236.458 74.1425 237.067C74.7541 237.677 74.7541 238.665 74.1425 239.274C73.5348 239.884 72.5454 239.884 71.9358 239.274C71.3261 238.665 71.3261 237.677 71.9358 237.067Z" fill="#81B0D4"/>
<path opacity="0.3" fill-rule="evenodd" clip-rule="evenodd" d="M10.592 238.628C11.2017 238.019 12.1911 238.019 12.7987 238.628C13.4104 239.237 13.4104 240.226 12.7987 240.835C12.1911 241.444 11.2017 241.444 10.592 240.835C9.98235 240.226 9.98235 239.237 10.592 238.628Z" fill="#81B0D4"/>
<path opacity="0.3" fill-rule="evenodd" clip-rule="evenodd" d="M32.7522 192.387C33.3618 191.778 34.3512 191.778 34.9609 192.387C35.5705 192.996 35.5705 193.985 34.9609 194.594C34.3512 195.203 33.3618 195.203 32.7522 194.594C32.1425 193.985 32.1425 192.996 32.7522 192.387Z" fill="#81B0D4"/>
<path opacity="0.3" fill-rule="evenodd" clip-rule="evenodd" d="M128.494 213.709C129.104 213.1 130.093 213.1 130.703 213.709C131.313 214.319 131.313 215.307 130.703 215.916C130.093 216.526 129.104 216.526 128.494 215.916C127.885 215.307 127.885 214.319 128.494 213.709Z" fill="#81B0D4"/>
<path opacity="0.3" fill-rule="evenodd" clip-rule="evenodd" d="M234.956 0.836499C235.2 0.59283 235.596 0.59283 235.84 0.836499C236.084 1.08017 236.084 1.47563 235.84 1.7193C235.596 1.96297 235.2 1.96297 234.956 1.7193C234.712 1.47563 234.712 1.08017 234.956 0.836499Z" fill="#C3CCD9"/>
<path opacity="0.3" fill-rule="evenodd" clip-rule="evenodd" d="M230.32 28.8209C230.563 28.5773 230.959 28.5773 231.203 28.8209C231.447 29.0646 231.447 29.4601 231.203 29.7037C230.959 29.9454 230.563 29.9454 230.32 29.7037C230.076 29.4601 230.076 29.0646 230.32 28.8209Z" fill="#C3CCD9"/>
<path opacity="0.3" fill-rule="evenodd" clip-rule="evenodd" d="M242.648 47.015C242.892 46.7714 243.287 46.7714 243.531 47.015C243.773 47.2587 243.773 47.6542 243.531 47.8978C243.287 48.1415 242.892 48.1415 242.648 47.8978C242.404 47.6542 242.404 47.2587 242.648 47.015Z" fill="#C3CCD9"/>
<path opacity="0.3" fill-rule="evenodd" clip-rule="evenodd" d="M216.38 42.9403C216.624 42.6967 217.02 42.6967 217.264 42.9403C217.508 43.184 217.508 43.5795 217.264 43.8231C217.02 44.0668 216.624 44.0668 216.38 43.8231C216.136 43.5795 216.136 43.184 216.38 42.9403Z" fill="#C3CCD9"/>
<path opacity="0.3" fill-rule="evenodd" clip-rule="evenodd" d="M194.773 69.8745C195.017 69.6309 195.412 69.6309 195.656 69.8745C195.9 70.1182 195.9 70.5137 195.656 70.7573C195.412 71.001 195.017 71.001 194.773 70.7573C194.529 70.5137 194.529 70.1182 194.773 69.8745Z" fill="#C3CCD9"/>
<path opacity="0.3" fill-rule="evenodd" clip-rule="evenodd" d="M217.577 92.8403C217.821 92.5967 218.217 92.5967 218.461 92.8403C218.705 93.084 218.705 93.4795 218.461 93.7231C218.217 93.9668 217.821 93.9668 217.577 93.7231C217.334 93.4795 217.334 93.084 217.577 92.8403Z" fill="#C3CCD9"/>
<path opacity="0.3" fill-rule="evenodd" clip-rule="evenodd" d="M189.98 111.982C190.224 111.739 190.619 111.739 190.863 111.982C191.107 112.226 191.107 112.622 190.863 112.865C190.619 113.109 190.224 113.109 189.98 112.865C189.736 112.622 189.736 112.226 189.98 111.982Z" fill="#C3CCD9"/>
<path opacity="0.3" fill-rule="evenodd" clip-rule="evenodd" d="M199.355 153.759C199.599 153.515 199.994 153.515 200.238 153.759C200.482 154.002 200.482 154.398 200.238 154.641C199.994 154.885 199.599 154.885 199.355 154.641C199.111 154.398 199.111 154.002 199.355 153.759Z" fill="#C3CCD9"/>
<path opacity="0.3" fill-rule="evenodd" clip-rule="evenodd" d="M187.679 184.592C187.923 184.348 188.319 184.348 188.562 184.592C188.804 184.835 188.804 185.231 188.562 185.475C188.319 185.718 187.923 185.718 187.679 185.475C187.435 185.231 187.435 184.835 187.679 184.592Z" fill="#C3CCD9"/>
<path opacity="0.3" fill-rule="evenodd" clip-rule="evenodd" d="M230.702 220.067C230.946 219.823 231.342 219.823 231.586 220.067C231.83 220.311 231.83 220.706 231.586 220.95C231.342 221.193 230.946 221.193 230.702 220.95C230.459 220.706 230.459 220.311 230.702 220.067Z" fill="#C3CCD9"/>
<path opacity="0.3" fill-rule="evenodd" clip-rule="evenodd" d="M185.679 228.441C185.923 228.198 186.319 228.198 186.562 228.441C186.804 228.685 186.804 229.081 186.562 229.324C186.319 229.568 185.923 229.568 185.679 229.324C185.435 229.081 185.435 228.685 185.679 228.441Z" fill="#C3CCD9"/>
<path opacity="0.3" fill-rule="evenodd" clip-rule="evenodd" d="M205.169 240.641C205.413 240.397 205.809 240.397 206.053 240.641C206.295 240.884 206.295 241.28 206.053 241.523C205.809 241.767 205.413 241.767 205.169 241.523C204.925 241.28 204.925 240.884 205.169 240.641Z" fill="#C3CCD9"/>
<path opacity="0.3" fill-rule="evenodd" clip-rule="evenodd" d="M104.759 253.803L103.968 255.231L103.204 253.817L101.787 253.052L103.218 252.261L104.01 250.833L104.773 252.247L106.191 253.012L104.759 253.803Z" fill="#BDCADC"/>
<path opacity="0.3" fill-rule="evenodd" clip-rule="evenodd" d="M132.572 71.7382L131.78 73.1683L131.015 71.7522L129.6 70.9892L131.031 70.1983L131.822 68.7682L132.586 70.1843L134.003 70.9473L132.572 71.7382Z" fill="#BDCADC"/>
<path opacity="0.3" fill-rule="evenodd" clip-rule="evenodd" d="M123.168 49.3692L122.376 50.7973L121.613 49.3832L120.195 48.6182L121.626 47.8273L122.418 46.3992L123.182 47.8133L124.599 48.5783L123.168 49.3692Z" fill="#BDCADC"/>
<path opacity="0.3" fill-rule="evenodd" clip-rule="evenodd" d="M141.14 44.5388L140.349 45.9668L139.583 44.5527L138.168 43.7878L139.597 42.9988L140.389 41.5688L141.154 42.9849L142.569 43.7478L141.14 44.5388Z" fill="#BDCADC"/>
<path opacity="0.3" fill-rule="evenodd" clip-rule="evenodd" d="M62.0192 103.403L61.2276 104.831L60.4621 103.417L59.0469 102.652L60.4781 101.861L61.2676 100.433L62.0332 101.847L63.4484 102.612L62.0192 103.403Z" fill="#BDCADC"/>
<path opacity="0.3" fill-rule="evenodd" clip-rule="evenodd" d="M66.6832 113.667L65.8917 115.095L65.1261 113.681L63.7109 112.916L65.1401 112.125L65.9317 110.697L66.6972 112.111L68.1124 112.876L66.6832 113.667Z" fill="#BDCADC"/>
<path opacity="0.3" fill-rule="evenodd" clip-rule="evenodd" d="M83.9157 127.161L83.1241 128.589L82.3586 127.175L80.9434 126.41L82.3725 125.619L83.1641 124.191L83.9296 125.605L85.3448 126.37L83.9157 127.161Z" fill="#BDCADC"/>
<path opacity="0.3" fill-rule="evenodd" clip-rule="evenodd" d="M94.7633 147.181L93.9718 148.609L93.2062 147.195L91.791 146.43L93.2222 145.639L94.0117 144.211L94.7773 145.625L96.1925 146.39L94.7633 147.181Z" fill="#BDCADC"/>
<path opacity="0.3" fill-rule="evenodd" clip-rule="evenodd" d="M74.402 167.876L73.6104 169.304L72.8469 167.89L71.4297 167.125L72.8609 166.336L73.6524 164.906L74.416 166.32L75.8332 167.085L74.402 167.876Z" fill="#BDCADC"/>
<path opacity="0.3" fill-rule="evenodd" clip-rule="evenodd" d="M54.9782 164.793L54.1866 166.222L53.421 164.807L52.0059 164.042L53.437 163.254L54.2266 161.823L54.9921 163.238L56.4073 164.003L54.9782 164.793Z" fill="#BDCADC"/>
<path opacity="0.3" fill-rule="evenodd" clip-rule="evenodd" d="M51.4743 179.015L50.6827 180.443L49.9191 179.029L48.502 178.264L49.9331 177.473L50.7247 176.045L51.4882 177.459L52.9054 178.224L51.4743 179.015Z" fill="#BDCADC"/>
<path opacity="0.3" fill-rule="evenodd" clip-rule="evenodd" d="M81.8063 186.906L81.0147 188.336L80.2492 186.92L78.834 186.157L80.2632 185.366L81.0547 183.936L81.8203 185.352L83.2355 186.115L81.8063 186.906Z" fill="#BDCADC"/>
<path opacity="0.3" fill-rule="evenodd" clip-rule="evenodd" d="M94.9078 186.13L94.1163 187.558L93.3507 186.144L91.9355 185.379L93.3667 184.588L94.1583 183.16L94.9218 184.574L96.339 185.339L94.9078 186.13Z" fill="#BDCADC"/>
<path opacity="0.3" fill-rule="evenodd" clip-rule="evenodd" d="M47.5797 70.3671L46.7882 71.7951L46.0226 70.381L44.6074 69.6161L46.0366 68.8271L46.8281 67.3971L47.5937 68.8112L49.0089 69.5761L47.5797 70.3671Z" fill="#BDCADC"/>
<path opacity="0.3" fill-rule="evenodd" clip-rule="evenodd" d="M41.7399 66.5411L40.9483 67.9691L40.1828 66.5551L38.7676 65.7901L40.1968 65.0012L40.9883 63.5711L41.7539 64.9872L43.1691 65.7501L41.7399 66.5411Z" fill="#BDCADC"/>
<path opacity="0.3" fill-rule="evenodd" clip-rule="evenodd" d="M26.6051 75.8888L25.8136 77.3168L25.048 75.9028L23.6328 75.1398L25.064 74.3489L25.8535 72.9188L26.6191 74.3349L28.0343 75.0979L26.6051 75.8888Z" fill="#BDCADC"/>
<path opacity="0.3" fill-rule="evenodd" clip-rule="evenodd" d="M245.492 54.8909L244.7 56.319L243.935 54.9049L242.52 54.1399L243.951 53.351L244.74 51.921L245.506 53.335L246.921 54.1L245.492 54.8909Z" fill="#BDCADC"/>
<path opacity="0.3" fill-rule="evenodd" clip-rule="evenodd" d="M231.533 45.6545L230.741 47.0825L229.976 45.6685L228.561 44.9035L229.99 44.1126L230.781 42.6845L231.547 44.0986L232.962 44.8635L231.533 45.6545Z" fill="#BDCADC"/>
<path opacity="0.3" fill-rule="evenodd" clip-rule="evenodd" d="M233.734 23.4806L232.942 24.9086L232.179 23.4946L230.762 22.7296L232.193 21.9407L232.984 20.5106L233.748 21.9247L235.163 22.6897L233.734 23.4806Z" fill="#BDCADC"/>
<path opacity="0.3" fill-rule="evenodd" clip-rule="evenodd" d="M251.664 21.2814L250.872 22.7094L250.107 21.2953L248.691 20.5304L250.121 19.7415L250.912 18.3114L251.678 19.7255L253.093 20.4904L251.664 21.2814Z" fill="#BDCADC"/>
<path opacity="0.3" fill-rule="evenodd" clip-rule="evenodd" d="M173.789 24.7289L172.997 26.1569L172.232 24.7429L170.816 23.9779L172.246 23.189L173.037 21.7589L173.803 23.173L175.218 23.938L173.789 24.7289Z" fill="#BDCADC"/>
<path opacity="0.3" fill-rule="evenodd" clip-rule="evenodd" d="M162.511 17.3375L161.72 18.7656L160.954 17.3515L159.539 16.5865L160.968 15.7976L161.76 14.3676L162.525 15.7816L163.941 16.5466L162.511 17.3375Z" fill="#BDCADC"/>
<path opacity="0.3" fill-rule="evenodd" clip-rule="evenodd" d="M157.013 30.0323L156.222 31.4603L155.456 30.0463L154.041 29.2813L155.47 28.4924L156.262 27.0623L157.027 28.4784L158.443 29.2414L157.013 30.0323Z" fill="#BDCADC"/>
<path opacity="0.3" fill-rule="evenodd" clip-rule="evenodd" d="M173.789 79.9409L172.997 81.369L172.232 79.9549L170.816 79.1899L172.246 78.401L173.037 76.9709L173.803 78.385L175.218 79.15L173.789 79.9409Z" fill="#BDCADC"/>
<path opacity="0.3" fill-rule="evenodd" clip-rule="evenodd" d="M170.974 98.3359L170.183 99.764L169.417 98.3499L168.002 97.585L169.433 96.796L170.223 95.366L170.988 96.78L172.403 97.545L170.974 98.3359Z" fill="#BDCADC"/>
<path opacity="0.3" fill-rule="evenodd" clip-rule="evenodd" d="M161.416 117.168L160.624 118.596L159.861 117.182L158.443 116.417L159.875 115.626L160.664 114.198L161.43 115.612L162.845 116.377L161.416 117.168Z" fill="#BDCADC"/>
<path opacity="0.3" fill-rule="evenodd" clip-rule="evenodd" d="M177.238 117.168L176.446 118.596L175.681 117.182L174.266 116.417L175.697 115.626L176.486 114.198L177.252 115.612L178.667 116.377L177.238 117.168Z" fill="#BDCADC"/>
<path opacity="0.3" fill-rule="evenodd" clip-rule="evenodd" d="M188.89 106.041L188.099 107.469L187.335 106.055L185.918 105.29L187.349 104.501L188.139 103.071L188.904 104.485L190.319 105.25L188.89 106.041Z" fill="#BDCADC"/>
<path opacity="0.3" fill-rule="evenodd" clip-rule="evenodd" d="M227.08 117.168L226.288 118.596L225.523 117.182L224.107 116.417L225.539 115.626L226.328 114.198L227.094 115.612L228.509 116.377L227.08 117.168Z" fill="#BDCADC"/>
<path opacity="0.3" fill-rule="evenodd" clip-rule="evenodd" d="M249.463 121.941L248.671 123.37L247.905 121.955L246.49 121.19L247.921 120.402L248.713 118.971L249.477 120.386L250.894 121.151L249.463 121.941Z" fill="#BDCADC"/>
<path opacity="0.3" fill-rule="evenodd" clip-rule="evenodd" d="M198.367 170.792L197.575 172.22L196.81 170.806L195.395 170.041L196.824 169.25L197.615 167.822L198.381 169.236L199.796 170.001L198.367 170.792Z" fill="#BDCADC"/>
<path opacity="0.3" fill-rule="evenodd" clip-rule="evenodd" d="M218.166 184.047L217.374 185.477L216.609 184.061L215.193 183.298L216.623 182.507L217.414 181.077L218.18 182.493L219.595 183.256L218.166 184.047Z" fill="#BDCADC"/>
<path opacity="0.3" fill-rule="evenodd" clip-rule="evenodd" d="M207.959 200.083L207.167 201.511L206.402 200.096L204.986 199.332L206.416 198.543L207.207 197.113L207.973 198.527L209.388 199.292L207.959 200.083Z" fill="#BDCADC"/>
<path opacity="0.3" fill-rule="evenodd" clip-rule="evenodd" d="M195.361 196.46L194.569 197.889L193.804 196.474L192.389 195.709L193.818 194.921L194.609 193.49L195.375 194.905L196.79 195.67L195.361 196.46Z" fill="#BDCADC"/>
<path opacity="0.3" fill-rule="evenodd" clip-rule="evenodd" d="M239.082 246.573L238.29 248.001L237.525 246.587L236.109 245.822L237.539 245.031L238.33 243.603L239.096 245.017L240.511 245.782L239.082 246.573Z" fill="#BDCADC"/>
<path opacity="0.3" fill-rule="evenodd" clip-rule="evenodd" d="M236.879 233.187L236.087 234.615L235.321 233.201L233.906 232.436L235.337 231.645L236.127 230.217L236.893 231.631L238.308 232.396L236.879 233.187Z" fill="#BDCADC"/>
<path opacity="0.3" fill-rule="evenodd" clip-rule="evenodd" d="M242.98 72.9544C243.386 72.5489 244.041 72.5489 244.445 72.9544C244.851 73.3598 244.851 74.0149 244.445 74.4184C244.041 74.8238 243.386 74.8238 242.98 74.4184C242.574 74.0149 242.574 73.3598 242.98 72.9544Z" fill="#C6D5DE"/>
<path opacity="0.3" fill-rule="evenodd" clip-rule="evenodd" d="M202.05 34.3895C202.454 33.9841 203.112 33.9841 203.516 34.3895C203.921 34.795 203.921 35.4501 203.516 35.8535C203.112 36.259 202.454 36.259 202.05 35.8535C201.645 35.4501 201.645 34.795 202.05 34.3895Z" fill="#C6D5DE"/>
<path opacity="0.3" fill-rule="evenodd" clip-rule="evenodd" d="M176.025 48.5333C176.431 48.1279 177.086 48.1279 177.492 48.5333C177.898 48.9388 177.898 49.5939 177.492 49.9973C177.086 50.4028 176.431 50.4028 176.025 49.9973C175.619 49.5939 175.619 48.9388 176.025 48.5333Z" fill="#C6D5DE"/>
<path opacity="0.3" fill-rule="evenodd" clip-rule="evenodd" d="M218.213 62.7914C218.618 62.3859 219.274 62.3859 219.68 62.7914C220.085 63.1968 220.085 63.8519 219.68 64.2574C219.274 64.6608 218.618 64.6608 218.213 64.2574C217.807 63.8519 217.807 63.1968 218.213 62.7914Z" fill="#C6D5DE"/>
<path opacity="0.3" fill-rule="evenodd" clip-rule="evenodd" d="M198.439 92.3488C198.845 91.9434 199.5 91.9434 199.904 92.3488C200.31 92.7543 200.31 93.4094 199.904 93.8148C199.5 94.2183 198.845 94.2183 198.439 93.8148C198.033 93.4094 198.033 92.7543 198.439 92.3488Z" fill="#C6D5DE"/>
<path opacity="0.3" fill-rule="evenodd" clip-rule="evenodd" d="M135.398 94.3832C135.804 93.9778 136.459 93.9778 136.863 94.3832C137.269 94.7887 137.269 95.4438 136.863 95.8493C136.459 96.2547 135.804 96.2547 135.398 95.8493C134.992 95.4438 134.992 94.7887 135.398 94.3832Z" fill="#C6D5DE"/>
<path opacity="0.3" fill-rule="evenodd" clip-rule="evenodd" d="M143.734 150.589C144.14 150.184 144.795 150.184 145.201 150.589C145.607 150.995 145.607 151.65 145.201 152.053C144.795 152.459 144.14 152.459 143.734 152.053C143.328 151.65 143.328 150.995 143.734 150.589Z" fill="#C6D5DE"/>
<path opacity="0.3" fill-rule="evenodd" clip-rule="evenodd" d="M169.47 143.478C169.874 143.072 170.532 143.072 170.936 143.478C171.341 143.883 171.341 144.538 170.936 144.942C170.532 145.347 169.874 145.347 169.47 144.942C169.065 144.538 169.065 143.883 169.47 143.478Z" fill="#C6D5DE"/>
<path opacity="0.3" fill-rule="evenodd" clip-rule="evenodd" d="M195.105 130.149C195.511 129.744 196.167 129.744 196.572 130.149C196.978 130.553 196.978 131.21 196.572 131.613C196.167 132.019 195.511 132.019 195.105 131.613C194.699 131.21 194.699 130.553 195.105 130.149Z" fill="#C6D5DE"/>
<path opacity="0.3" fill-rule="evenodd" clip-rule="evenodd" d="M234.039 141.077C234.444 140.671 235.1 140.671 235.506 141.077C235.912 141.48 235.912 142.137 235.506 142.541C235.1 142.946 234.444 142.946 234.039 142.541C233.633 142.137 233.633 141.48 234.039 141.077Z" fill="#C6D5DE"/>
<path opacity="0.3" fill-rule="evenodd" clip-rule="evenodd" d="M251.304 185.304C251.71 184.899 252.366 184.899 252.769 185.304C253.175 185.71 253.175 186.365 252.769 186.768C252.366 187.174 251.71 187.174 251.304 186.768C250.899 186.365 250.899 185.71 251.304 185.304Z" fill="#C6D5DE"/>
<path opacity="0.3" fill-rule="evenodd" clip-rule="evenodd" d="M250.16 204.409C250.566 204.003 251.221 204.003 251.627 204.409C252.033 204.814 252.033 205.469 251.627 205.873C251.221 206.278 250.566 206.278 250.16 205.873C249.754 205.469 249.754 204.814 250.16 204.409Z" fill="#C6D5DE"/>
<path opacity="0.3" fill-rule="evenodd" clip-rule="evenodd" d="M168.433 218.231C168.839 217.825 169.495 217.825 169.9 218.231C170.306 218.634 170.306 219.291 169.9 219.695C169.495 220.1 168.839 220.1 168.433 219.695C168.027 219.291 168.027 218.634 168.433 218.231Z" fill="#C6D5DE"/>
<path opacity="0.3" fill-rule="evenodd" clip-rule="evenodd" d="M160.021 201.901C160.427 201.496 161.083 201.496 161.486 201.901C161.892 202.305 161.892 202.962 161.486 203.365C161.083 203.771 160.427 203.771 160.021 203.365C159.615 202.962 159.615 202.305 160.021 201.901Z" fill="#C6D5DE"/>
<path opacity="0.3" fill-rule="evenodd" clip-rule="evenodd" d="M148.992 219.151C149.398 218.746 150.053 218.746 150.459 219.151C150.865 219.557 150.865 220.212 150.459 220.615C150.053 221.021 149.398 221.021 148.992 220.615C148.586 220.212 148.586 219.557 148.992 219.151Z" fill="#C6D5DE"/>
<path opacity="0.3" fill-rule="evenodd" clip-rule="evenodd" d="M169.47 249.488C169.874 249.083 170.532 249.083 170.936 249.488C171.341 249.893 171.341 250.549 170.936 250.954C170.532 251.359 169.874 251.359 169.47 250.954C169.065 250.549 169.065 249.893 169.47 249.488Z" fill="#C6D5DE"/>
<path opacity="0.3" fill-rule="evenodd" clip-rule="evenodd" d="M208.654 253.87C209.058 253.464 209.715 253.464 210.119 253.87C210.525 254.275 210.525 254.93 210.119 255.334C209.715 255.739 209.058 255.739 208.654 255.334C208.248 254.93 208.248 254.275 208.654 253.87Z" fill="#C6D5DE"/>
<path opacity="0.3" fill-rule="evenodd" clip-rule="evenodd" d="M190.848 250.697C191.482 250.064 192.511 250.064 193.145 250.697C193.779 251.331 193.779 252.359 193.145 252.992C192.511 253.625 191.482 253.625 190.848 252.992C190.215 252.359 190.215 251.331 190.848 250.697Z" fill="#C6D5DE"/>
<path opacity="0.3" fill-rule="evenodd" clip-rule="evenodd" d="M162.792 184.51C163.425 183.877 164.455 183.877 165.088 184.51C165.722 185.143 165.722 186.172 165.088 186.805C164.455 187.438 163.425 187.438 162.792 186.805C162.158 186.172 162.158 185.143 162.792 184.51Z" fill="#C6D5DE"/>
<path opacity="0.3" fill-rule="evenodd" clip-rule="evenodd" d="M183.395 148.723C184.029 148.09 185.058 148.09 185.692 148.723C186.325 149.357 186.325 150.385 185.692 151.018C185.058 151.651 184.029 151.651 183.395 151.018C182.762 150.385 182.762 149.357 183.395 148.723Z" fill="#C6D5DE"/>
<path opacity="0.3" fill-rule="evenodd" clip-rule="evenodd" d="M239.362 164.065C239.996 163.432 241.025 163.432 241.659 164.065C242.292 164.698 242.292 165.727 241.659 166.36C241.025 166.995 239.996 166.995 239.362 166.36C238.728 165.727 238.728 164.698 239.362 164.065Z" fill="#C6D5DE"/>
<path opacity="0.3" fill-rule="evenodd" clip-rule="evenodd" d="M196.448 41.537C197.082 40.9039 198.111 40.9039 198.745 41.537C199.378 42.1702 199.378 43.1988 198.745 43.8319C198.111 44.4651 197.082 44.4651 196.448 43.8319C195.814 43.1988 195.814 42.1702 196.448 41.537Z" fill="#C6D5DE"/>
<path opacity="0.3" fill-rule="evenodd" clip-rule="evenodd" d="M181.772 0.75464C182.406 0.1215 183.435 0.1215 184.069 0.75464C184.702 1.38778 184.702 2.41638 184.069 3.04952C183.435 3.68266 182.406 3.68266 181.772 3.04952C181.138 2.41638 181.138 1.38778 181.772 0.75464Z" fill="#C6D5DE"/>
</g>
</g>
</g>
</svg>
